<?xml version="1.0" encoding="UTF-8"?>
<svg version="1.1" xmlns="http://www.w3.org/2000/svg" width="500" height="500">
<path d="M0 0 C165 0 330 0 500 0 C500 165 500 330 500 500 C335 500 170 500 0 500 C0 335 0 170 0 0 Z " fill="#FEFEFE" transform="translate(0,0)"/>
<path d="M0 0 C2.10820743 0.01065975 4.21554971 0.00007261 6.32373047 -0.01269531 C48.04219625 -0.05700563 86.96715476 16.35307404 116.87451172 45.26074219 C117.73818359 46.07285156 118.60185547 46.88496094 119.49169922 47.72167969 C139.56794027 67.04740706 154.09163333 93.28063215 160.87451172 120.26074219 C161.14521484 121.25726807 161.14521484 121.25726807 161.42138672 122.27392578 C164.71270451 134.71922118 165.25146836 146.96411771 165.24951172 159.76074219 C165.25132446 160.530242 165.25313721 161.29974182 165.25500488 162.09255981 C165.25245549 171.65572389 164.70550918 180.8417972 162.87451172 190.26074219 C162.73400391 190.98616211 162.59349609 191.71158203 162.44873047 192.45898438 C157.89967736 214.18963266 148.95281357 235.31336033 135.87451172 253.26074219 C135.48457031 253.79876465 135.09462891 254.33678711 134.69287109 254.89111328 C110.21276014 288.32477663 74.55673097 310.61488301 33.87451172 318.26074219 C33.0130957 318.43951904 32.15167969 318.6182959 31.26416016 318.80249023 C23.1415353 320.35999731 15.13353344 320.60039242 6.89453125 320.57641602 C4.64126675 320.57326561 2.38933305 320.59677387 0.13623047 320.62207031 C-40.45937251 320.79792034 -79.81297876 302.07390899 -108.46923828 273.98339844 C-127.17058997 255.17049823 -139.5978263 233.23790823 -148.12548828 208.26074219 C-148.38547607 207.52388184 -148.64546387 206.78702148 -148.91333008 206.02783203 C-161.36564702 170.08761186 -157.02923181 127.11186391 -141.04296875 92.94726562 C-124.80599271 59.49868888 -99.3389358 33.07787865 -66.12548828 16.26074219 C-64.97177734 15.67550781 -63.81806641 15.09027344 -62.62939453 14.48730469 C-43.00323364 5.02254656 -21.76125602 -0.13021695 0 0 Z " fill="#030303" transform="translate(246.12548828125,88.7392578125)"/>
<path d="M0 0 C0.74765625 0.60328125 1.4953125 1.2065625 2.265625 1.828125 C18.43162157 15.28094732 29.55526431 36.30021976 33 57 C33.21704217 61.44344525 33.22814193 65.88695556 33.24023438 70.33496094 C33.24984622 72.46590648 33.2808606 74.59584669 33.3125 76.7265625 C33.51040065 102.01071723 23.31044335 123.15992771 7 142 C7.70125 142.56847656 8.4025 143.13695312 9.125 143.72265625 C14.84588387 148.37864734 20.49297263 153.09259166 26 158 C24.68348788 161.01192286 23.41673632 162.70303617 20.8125 164.6875 C17.14546882 167.69126359 14.47191292 171.10731127 11.62890625 174.87890625 C9.19804218 178.04427601 6.82841801 181.08776553 3.19140625 182.90234375 C1 183 1 183 -1.5234375 181.19140625 C-2.46445312 180.32386719 -3.40546875 179.45632813 -4.375 178.5625 C-14.86852201 168.9583284 -14.86852201 168.9583284 -27.91015625 165.0703125 C-30.63022711 165.75392454 -30.63022711 165.75392454 -33.14990234 166.85205078 C-42.64881201 170.6779779 -52.05589776 171.50761689 -62.18041992 171.44604492 C-64.30031159 171.43754885 -66.41748251 171.46638868 -68.53710938 171.49804688 C-77.08412787 171.540292 -84.53636829 170.44084237 -92.71948242 167.95727539 C-99.28231932 166.04219885 -102.46936616 165.70402337 -108.625 168.9375 C-109.22820068 169.25162842 -109.83140137 169.56575684 -110.45288086 169.8894043 C-115.675682 172.67357537 -120.54413435 175.88760664 -125.37890625 179.30078125 C-127.86790184 180.91436259 -130.21356359 182.00736352 -133 183 C-133.37769531 182.47792969 -133.75539062 181.95585937 -134.14453125 181.41796875 C-139.72128904 173.96052449 -146.20740775 166.1950615 -154 161 C-152.6491043 157.88715752 -151.25473211 156.10984747 -148.59375 154.01953125 C-147.93246094 153.49552734 -147.27117187 152.97152344 -146.58984375 152.43164062 C-145.90019531 151.89732422 -145.21054688 151.36300781 -144.5 150.8125 C-143.81035156 150.26658203 -143.12070313 149.72066406 -142.41015625 149.15820312 C-137.33904656 145.16952328 -137.33904656 145.16952328 -135 144 C-136.62960464 140.2393739 -139.0369202 137.40697659 -141.625 134.25 C-159.56023633 111.52400053 -163.74707164 83.45173039 -160.69970703 55.21777344 C-159.94125614 50.62842088 -158.63769228 46.36041908 -157 42 C-156.55269531 40.78828125 -156.10539063 39.5765625 -155.64453125 38.328125 C-146.37211838 15.15952234 -128.39382981 -4.76584994 -105.50390625 -15.1171875 C-70.14749902 -30.2249473 -29.31965815 -25.38413357 0 0 Z " fill="#FDFDFD" transform="translate(314,176)"/>
<path d="M0 0 C2.11735236 0.54492118 4.23704942 1.07975762 6.35742188 1.61279297 C13.66544361 3.4609532 20.9304902 5.40858418 28.12304688 7.67138672 C28.12304688 8.99138672 28.12304688 10.31138672 28.12304688 11.67138672 C26.80304688 11.67138672 25.48304688 11.67138672 24.12304688 11.67138672 C24.12304688 14.97138672 24.12304688 18.27138672 24.12304688 21.67138672 C25.60804688 22.16638672 25.60804688 22.16638672 27.12304688 22.67138672 C27.31693783 25.15020802 27.5034481 27.62919603 27.68554688 30.10888672 C27.7696582 31.16946289 27.7696582 31.16946289 27.85546875 32.25146484 C27.98495681 34.05566509 28.05826295 35.86370624 28.12304688 37.67138672 C26.06382286 39.73061073 21.90596563 39.08566251 19.06054688 39.23388672 C18.30193359 39.27707031 17.54332031 39.32025391 16.76171875 39.36474609 C14.8823925 39.47112305 13.00274444 39.57178606 11.12304688 39.67138672 C11.12304688 41.65138672 11.12304688 43.63138672 11.12304688 45.67138672 C1.73891841 50.22040021 -6.3033539 54.11195335 -16.87695312 53.67138672 C-16.87695312 56.31138672 -16.87695312 58.95138672 -16.87695312 61.67138672 C-17.20695312 61.67138672 -17.53695312 61.67138672 -17.87695312 61.67138672 C-17.87695312 59.36138672 -17.87695312 57.05138672 -17.87695312 54.67138672 C-19.85695312 54.67138672 -21.83695313 54.67138672 -23.87695312 54.67138672 C-23.87695312 59.29138672 -23.87695312 63.91138672 -23.87695312 68.67138672 C-24.20695312 68.67138672 -24.53695312 68.67138672 -24.87695312 68.67138672 C-24.87695312 63.72138672 -24.87695312 58.77138672 -24.87695312 53.67138672 C-26.94976562 53.82607422 -26.94976562 53.82607422 -29.06445312 53.98388672 C-35.91271903 54.00339745 -41.74015443 51.52664692 -47.87695312 48.67138672 C-48.80894531 48.24470703 -49.7409375 47.81802734 -50.70117188 47.37841797 C-52.87695312 45.67138672 -52.87695312 45.67138672 -53.87695312 39.67138672 C-60.31195313 38.18638672 -60.31195313 38.18638672 -66.87695312 36.67138672 C-66.87695312 58.78138672 -66.87695312 80.89138672 -66.87695312 103.67138672 C-63.24695313 104.00138672 -59.61695313 104.33138672 -55.87695312 104.67138672 C-52.75146484 105.43994141 -52.75146484 105.43994141 -50.30664062 106.34326172 C-48.93185547 106.84599609 -48.93185547 106.84599609 -47.52929688 107.35888672 C-46.61277344 107.70951172 -45.69625 108.06013672 -44.75195312 108.42138672 C-43.82769531 108.75654297 -42.9034375 109.09169922 -41.95117188 109.43701172 C-35.93242168 111.67812604 -30.39407398 114.38726491 -24.87695312 117.67138672 C-24.8121974 113.64888723 -24.83674834 109.63159873 -24.87695312 105.60888672 C-24.85761719 104.47515625 -24.83828125 103.34142578 -24.81835938 102.17333984 C-24.88111413 95.95403001 -24.88111413 95.95403001 -27.41699219 90.43261719 C-31.854186 86.31017241 -36.96966947 83.92258186 -42.62695312 81.92138672 C-43.40538574 81.63191162 -44.18381836 81.34243652 -44.98583984 81.04418945 C-51.17104494 78.79473406 -57.42729039 76.99925846 -63.87695312 75.67138672 C-63.87695312 75.01138672 -63.87695312 74.35138672 -63.87695312 73.67138672 C-55.70461023 74.55342373 -48.57341901 77.16368468 -41.07275391 80.37084961 C-40.32880371 80.68014404 -39.58485352 80.98943848 -38.81835938 81.30810547 C-37.82364624 81.73675903 -37.82364624 81.73675903 -36.80883789 82.17407227 C-34.49612206 82.76942196 -33.11609991 82.41860026 -30.87695312 81.67138672 C-39.57745796 74.37767993 -53.1019589 71.49380431 -63.87695312 68.67138672 C-63.87695312 68.01138672 -63.87695312 67.35138672 -63.87695312 66.67138672 C-53.22303133 68.15678928 -42.5467028 71.9852324 -33.12695312 77.17138672 C-32.05445313 77.66638672 -30.98195312 78.16138672 -29.87695312 78.67138672 C-27.6887419 77.83820217 -27.6887419 77.83820217 -25.87695312 76.67138672 C-25.87695312 75.02138672 -25.87695312 73.37138672 -25.87695312 71.67138672 C-25.21695313 71.34138672 -24.55695313 71.01138672 -23.87695312 70.67138672 C-23.87695312 71.99138672 -23.87695312 73.31138672 -23.87695312 74.67138672 C-23.21695313 74.67138672 -22.55695313 74.67138672 -21.87695312 74.67138672 C-20.62595697 72.41959363 -19.86218202 70.59383843 -19.37695312 68.04638672 C-18.87695312 65.67138672 -18.87695312 65.67138672 -16.87695312 63.67138672 C-16.54695313 64.99138672 -16.21695313 66.31138672 -15.87695312 67.67138672 C-13.23121811 65.44260947 -13.23121811 65.44260947 -10.87695312 62.67138672 C-11.15253928 60.52533752 -11.15253928 60.52533752 -11.87695312 58.67138672 C11.67881185 46.21313875 11.67881185 46.21313875 22.12304688 46.67138672 C21.12304688 48.67138672 21.12304688 48.67138672 19.44897461 49.35742188 C18.74200439 49.5564209 18.03503418 49.75541992 17.30664062 49.96044922 C16.54287109 50.17958984 15.77910156 50.39873047 14.9921875 50.62451172 C14.18974609 50.84623047 13.38730469 51.06794922 12.56054688 51.29638672 C11.35108398 51.64056641 11.35108398 51.64056641 10.1171875 51.99169922 C8.12112484 52.55862826 6.12232769 53.11591315 4.12304688 53.67138672 C4.45304687 54.33138672 4.78304687 54.99138672 5.12304688 55.67138672 C6.07179688 55.52701172 7.02054687 55.38263672 7.99804688 55.23388672 C12.69045035 54.55941394 17.40439099 54.11761776 22.12304688 53.67138672 C19.69699936 56.09743424 17.98111911 56.42982191 14.68554688 57.29638672 C13.71746094 57.55677734 12.749375 57.81716797 11.75195312 58.08544922 C9.12304688 58.67138672 9.12304688 58.67138672 6.12304688 58.67138672 C5.79304688 60.32138672 5.46304688 61.97138672 5.12304688 63.67138672 C5.8475 63.45482422 6.57195312 63.23826172 7.31835938 63.01513672 C16.92093791 60.2495941 16.92093791 60.2495941 22.12304688 60.67138672 C19.41961476 63.37481883 16.41143286 63.83109071 12.81054688 64.73388672 C12.14603516 64.90726562 11.48152344 65.08064453 10.796875 65.25927734 C7.25738268 66.17303352 3.71587078 66.9972979 0.12304688 67.67138672 C0.12304688 68.33138672 0.12304688 68.99138672 0.12304688 69.67138672 C-1.40820312 71.17919922 -1.40820312 71.17919922 -3.37695312 72.79638672 C-4.02664063 73.33521484 -4.67632812 73.87404297 -5.34570312 74.42919922 C-5.85101563 74.83912109 -6.35632813 75.24904297 -6.87695312 75.67138672 C-5.70519531 75.18927734 -4.5334375 74.70716797 -3.32617188 74.21044922 C5.05682526 70.82030592 13.05425471 67.65017706 22.12304688 66.67138672 C22.12304688 67.33138672 22.12304688 67.99138672 22.12304688 68.67138672 C21.08148438 68.95111328 20.03992188 69.23083984 18.96679688 69.51904297 C11.23826335 71.6564712 3.7335527 74.03400548 -3.62695312 77.23388672 C-4.28115234 77.51433838 -4.93535156 77.79479004 -5.609375 78.08374023 C-9.54060674 79.84635155 -12.84728106 81.59731457 -15.87695312 84.67138672 C-16.39477146 87.40675587 -16.59932511 89.54551385 -16.58398438 92.28076172 C-16.60666634 93.37097626 -16.60666634 93.37097626 -16.62980652 94.48321533 C-16.6726688 96.79625505 -16.681519 99.10798953 -16.68945312 101.42138672 C-16.71259894 102.99303597 -16.73796447 104.5646542 -16.765625 106.13623047 C-16.82846147 109.98139782 -16.86080829 113.8257513 -16.87695312 117.67138672 C-15.77996094 117.00751953 -14.68296875 116.34365234 -13.55273438 115.65966797 C-10.94908818 114.08401839 -10.19956545 113.64987923 -7.06445312 113.85888672 C-4.87695312 114.67138672 -4.87695312 114.67138672 -2.87695312 115.67138672 C-0.35110263 115.44545055 2.11656904 115.15713213 4.62304688 114.79638672 C5.31269531 114.70486328 6.00234375 114.61333984 6.71289062 114.51904297 C10.53776566 114.01549448 10.53776566 114.01549448 14.12304688 112.67138672 C21.05304688 112.67138672 27.98304688 112.67138672 35.12304688 112.67138672 C35.12304688 89.90138672 35.12304688 67.13138672 35.12304688 43.67138672 C35.78304687 43.67138672 36.44304687 43.67138672 37.12304688 43.67138672 C37.12304688 45.32138672 37.12304688 46.97138672 37.12304688 48.67138672 C38.11304688 48.67138672 39.10304688 48.67138672 40.12304688 48.67138672 C40.12304688 71.77138672 40.12304688 94.87138672 40.12304688 118.67138672 C31.97617187 119.33138672 23.82929688 119.99138672 15.43554688 120.67138672 C11.65017456 120.98462891 11.65017456 120.98462891 7.78833008 121.30419922 C-13.16648397 122.98771147 -32.96568804 122.8222597 -53.87695312 120.67138672 C-67.73695313 119.68138672 -67.73695313 119.68138672 -81.87695312 118.67138672 C-81.87695312 95.57138672 -81.87695312 72.47138672 -81.87695312 48.67138672 C-80.55695313 48.67138672 -79.23695313 48.67138672 -77.87695312 48.67138672 C-77.87695312 46.69138672 -77.87695312 44.71138672 -77.87695312 42.67138672 C-76.22695312 42.67138672 -74.57695312 42.67138672 -72.87695312 42.67138672 C-72.87695312 41.35138672 -72.87695312 40.03138672 -72.87695312 38.67138672 C-71.55695313 38.67138672 -70.23695313 38.67138672 -68.87695312 38.67138672 C-68.87695312 37.35138672 -68.87695312 36.03138672 -68.87695312 34.67138672 C-67.33457047 34.78721783 -65.79305041 34.91455244 -64.25195312 35.04638672 C-63.3934375 35.11599609 -62.53492188 35.18560547 -61.65039062 35.25732422 C-58.87695312 35.67138672 -58.87695312 35.67138672 -52.87695312 37.67138672 C-52.87695312 30.41138672 -52.87695312 23.15138672 -52.87695312 15.67138672 C-61.29195312 13.69138672 -61.29195312 13.69138672 -69.87695312 11.67138672 C-69.87695312 10.35138672 -69.87695312 9.03138672 -69.87695312 7.67138672 C-61.76408989 5.49422381 -53.6484554 3.32825096 -45.52813721 1.17909241 C-41.90224631 0.21720917 -38.28420207 -0.7671625 -34.67382812 -1.78564453 C-33.32490422 -2.15426014 -31.97595011 -2.52276523 -30.62695312 -2.89111328 C-29.52867187 -3.20177734 -28.43039063 -3.51244141 -27.29882812 -3.83251953 C-18.0217315 -5.17748674 -8.9304628 -2.29870608 0 0 Z " fill="#080808" transform="translate(270.876953125,167.32861328125)"/>
<path d="M0 0 C0.91136719 0.49242187 1.82273437 0.98484375 2.76171875 1.4921875 C11.46243265 6.45201475 20.08171408 12.74749737 27 20 C25.68348788 23.01192286 24.41673632 24.70303617 21.8125 26.6875 C18.14546882 29.69126359 15.47191292 33.10731127 12.62890625 36.87890625 C10.19804218 40.04427601 7.82841801 43.08776553 4.19140625 44.90234375 C2 45 2 45 -0.5234375 43.19140625 C-1.46445312 42.32386719 -2.40546875 41.45632813 -3.375 40.5625 C-13.86852201 30.9583284 -13.86852201 30.9583284 -26.91015625 27.0703125 C-29.63022711 27.75392454 -29.63022711 27.75392454 -32.14990234 28.85205078 C-41.64881201 32.6779779 -51.05589776 33.50761689 -61.18041992 33.44604492 C-63.30031159 33.43754885 -65.41748251 33.46638868 -67.53710938 33.49804688 C-76.08412787 33.540292 -83.53636829 32.44084237 -91.71948242 29.95727539 C-98.28231932 28.04219885 -101.46936616 27.70402337 -107.625 30.9375 C-108.22820068 31.25162842 -108.83140137 31.56575684 -109.45288086 31.8894043 C-114.675682 34.67357537 -119.54413435 37.88760664 -124.37890625 41.30078125 C-126.86790184 42.91436259 -129.21356359 44.00736352 -132 45 C-132.56654297 44.21689453 -132.56654297 44.21689453 -133.14453125 43.41796875 C-138.72128904 35.96052449 -145.20740775 28.1950615 -153 23 C-151.65996683 19.92189173 -150.30315347 18.1508037 -147.6640625 16.08984375 C-147.01179687 15.57486328 -146.35953125 15.05988281 -145.6875 14.52929688 C-145.006875 14.00400391 -144.32625 13.47871094 -143.625 12.9375 C-142.95210937 12.40833984 -142.27921875 11.87917969 -141.5859375 11.33398438 C-139.73149693 9.87927066 -137.86779885 8.43749651 -136 7 C-134.9171875 6.15695312 -134.9171875 6.15695312 -133.8125 5.296875 C-93.57342652 -23.49487585 -42.27218679 -23.13717965 0 0 Z " fill="#C0BCBC" transform="translate(313,314)"/>
<path d="M0 0 C5.41917439 0.6773968 9.11760113 1.16910042 14 3 C14 4.98 14 6.96 14 9 C14.69738281 9.27714844 15.39476562 9.55429688 16.11328125 9.83984375 C18.07554356 10.62846608 20.03114964 11.43381263 21.98046875 12.25390625 C28.10828699 14.75429494 33.53654139 16.55971477 40.171875 16.859375 C42 17 42 17 43 18 C46 18.16666667 46 18.16666667 49 18 C49.495 17.505 49.495 17.505 50 17 C52.28694204 16.55813653 54.57986975 16.14714527 56.875 15.75 C63.02834418 14.62096629 68.31321941 12.83231483 73.92578125 9.98828125 C76 9 76 9 78 9 C78 7.02 78 5.04 78 3 C80.34852528 1.82573736 81.73774065 1.88491827 84.3515625 1.90234375 C85.62773437 1.90717773 85.62773437 1.90717773 86.9296875 1.91210938 C87.81914062 1.92048828 88.70859375 1.92886719 89.625 1.9375 C90.5221875 1.94201172 91.419375 1.94652344 92.34375 1.95117188 C94.56256648 1.96297409 96.78125018 1.97943845 99 2 C99 3.32 99 4.64 99 6 C100.32 6.33 101.64 6.66 103 7 C102.67 29.77 102.34 52.54 102 76 C91.605 76.495 91.605 76.495 81 77 C80.01 77.495 80.01 77.495 79 78 C76.56181018 78.39530415 74.13600997 78.74739147 71.6875 79.0625 C71.02298828 79.15337891 70.35847656 79.24425781 69.67382812 79.33789062 C66.09183215 79.80911265 62.61259954 80.1048143 59 80 C59.66 79.34 60.32 78.68 61 78 C57.03564468 78.55316586 53.6837622 79.45620868 50 81 C49.85126836 76.39198858 49.742612 71.78538408 49.67041016 67.17553711 C49.64030399 65.60888321 49.5994077 64.04239697 49.54736328 62.47631836 C49.47426113 60.21946857 49.44048699 57.96485204 49.4140625 55.70703125 C49.36761093 54.66298882 49.36761093 54.66298882 49.32022095 53.59785461 C49.31830797 50.81058668 49.46077732 48.64486167 51.28778076 46.45993042 C60.86109537 38.3224479 76.57243016 32.74565419 89 32 C89 31.34 89 30.68 89 30 C80.00845648 32.47715443 71.35158994 34.92300604 63.00390625 39.1796875 C62.34261719 39.45039063 61.68132812 39.72109375 61 40 C60.01 39.505 60.01 39.505 59 39 C59.9520721 37.99403703 60.91187346 36.99538437 61.875 36 C62.40867187 35.443125 62.94234375 34.88625 63.4921875 34.3125 C65 33 65 33 67 33 C67 32.34 67 31.68 67 31 C69.39460588 30.18372554 71.79056526 29.37188355 74.1875 28.5625 C75.19780273 28.21735352 75.19780273 28.21735352 76.22851562 27.86523438 C79.79514491 26.66475915 83.2871161 25.62722505 87 25 C81.49191603 25.59015185 76.35121931 26.56663769 71 28 C71.4375 25.1875 71.4375 25.1875 73 22 C77.28479117 19.74664369 82.24577957 18.76680975 87 18 C85.824375 18.144375 84.64875 18.28875 83.4375 18.4375 C82.71046875 18.52386719 81.9834375 18.61023438 81.234375 18.69921875 C79.20683189 18.97215725 77.19485852 19.3551098 75.1875 19.75 C73.6096875 19.87375 73.6096875 19.87375 72 20 C70.30078125 18.515625 70.30078125 18.515625 69 17 C71.41605225 16.18563413 73.83279998 15.37344603 76.25 14.5625 C76.93191406 14.33240234 77.61382812 14.10230469 78.31640625 13.86523438 C81.52066613 12.79196286 84.70046619 11.73984392 88 11 C82.23576015 11.53396418 77.37305445 12.69327343 72 14.8125 C71.30519531 15.07949707 70.61039062 15.34649414 69.89453125 15.62158203 C65.11246571 17.48663245 60.51680362 19.55339804 56 22 C56.495 23.98 56.495 23.98 57 26 C53.535 28.97 53.535 28.97 50 32 C49.505 30.515 49.505 30.515 49 29 C48.896875 29.7425 48.79375 30.485 48.6875 31.25 C47.95066203 34.1973519 47.05200858 35.78383074 45 38 C44.34 38 43.68 38 43 38 C42.67 37.34 42.34 36.68 42 36 C41.9175 36.78375 41.835 37.5675 41.75 38.375 C41 41 41 41 39.36328125 42.3515625 C35.80898536 43.32679079 33.51500994 41.65655537 30.4375 40 C21.63277319 35.54812183 12.44215252 32.7747122 3 30 C3 30.66 3 31.32 3 32 C3.6084375 32.07476562 4.216875 32.14953125 4.84375 32.2265625 C10.92475083 33.13871262 16.51046119 34.72869063 22.25 36.875 C23.2409668 37.24165771 23.2409668 37.24165771 24.25195312 37.61572266 C28.77359688 39.35716653 32.84243973 41.51192637 37 44 C36.34 44.99 35.68 45.98 35 47 C30.55795745 46.29681952 26.53956988 44.75853371 22.375 43.125 C16.00508271 40.67401757 9.64251977 38.6043374 3 37 C3 37.66 3 38.32 3 39 C4.010625 39.061875 5.02125 39.12375 6.0625 39.1875 C16.01451421 40.44254975 27.67715701 44.42731383 36 50 C36.52658203 50.34450195 37.05316406 50.68900391 37.59570312 51.04394531 C40.54310904 53.37513857 41.84210039 55.06510841 42.4777832 58.82885742 C42.5907016 62.19678235 42.52318212 65.5086061 42.375 68.875 C42.33439453 70.62296875 42.33439453 70.62296875 42.29296875 72.40625 C42.22248125 75.27274172 42.12399461 78.13540655 42 81 C38.53825211 79.96147563 35.34808158 78.72434754 32.14453125 77.0703125 C28.09425724 74.99467932 23.9779872 73.38085344 19.6875 71.875 C19.00494141 71.62363281 18.32238281 71.37226563 17.61914062 71.11328125 C11.67585817 69.00917198 6.40741533 68.1649846 0 67 C0 44.89 0 22.78 0 0 Z " fill="#E3E3E3" transform="translate(204,204)"/>
<path d="M0 0 C1.65 0 3.3 0 5 0 C3.68 0.33 2.36 0.66 1 1 C1.33 23.11 1.66 45.22 2 68 C7.28 68.66 12.56 69.32 18 70 C19.485 70.99 19.485 70.99 21 72 C18.62471849 71.85796663 16.24984749 71.71148388 13.875 71.5625 C13.20984375 71.52318359 12.5446875 71.48386719 11.859375 71.44335938 C7.81301962 71.18550339 4.02253146 70.67042191 0 70 C0 48.88 0 27.76 0 6 C-1.32 6 -2.64 6 -4 6 C-4 28.44 -4 50.88 -4 74 C0.62 74 5.24 74 10 74 C18.47228744 74.31105983 26.70330114 75.25600004 35 77 C34.01 76.34 33.02 75.68 32 75 C33.35223027 74.88961386 34.70725149 74.81335051 36.0625 74.75 C36.81660156 74.70359375 37.57070312 74.6571875 38.34765625 74.609375 C42.1808038 75.17390336 44.71854032 76.95963094 48 79 C48.06475572 74.97750051 48.04020478 70.96021201 48 66.9375 C48.01933594 65.80376953 48.03867188 64.67003906 48.05859375 63.50195312 C47.99583899 57.28264329 47.99583899 57.28264329 45.45996094 51.76123047 C41.02276712 47.63878569 35.90728365 45.25119514 30.25 43.25 C29.47156738 42.9605249 28.69313477 42.6710498 27.89111328 42.37280273 C21.70590818 40.12334734 15.44966274 38.32787174 9 37 C9 36.34 9 35.68 9 35 C17.17234289 35.88203701 24.30353412 38.49229796 31.80419922 41.69946289 C32.54814941 42.00875732 33.29209961 42.31805176 34.05859375 42.63671875 C34.72173584 42.92248779 35.38487793 43.20825684 36.06811523 43.50268555 C38.38083106 44.09803524 39.76085321 43.74721354 42 43 C33.29949517 35.70629321 19.77499423 32.82241759 9 30 C9 29.34 9 28.68 9 28 C19.6539218 29.48540256 30.33025033 33.31384569 39.75 38.5 C40.8225 38.995 41.895 39.49 43 40 C45.18821122 39.16681545 45.18821122 39.16681545 47 38 C47 36.35 47 34.7 47 33 C47.66 32.67 48.32 32.34 49 32 C49 33.32 49 34.64 49 36 C49.66 36 50.32 36 51 36 C52.25099616 33.74820691 53.0147711 31.92245172 53.5 29.375 C54 27 54 27 56 25 C56.495 26.98 56.495 26.98 57 29 C59.64573501 26.77122275 59.64573501 26.77122275 62 24 C61.72441384 21.8539508 61.72441384 21.8539508 61 20 C84.55576498 7.54175203 84.55576498 7.54175203 95 8 C94 10 94 10 92.32592773 10.68603516 C91.26547241 10.98453369 91.26547241 10.98453369 90.18359375 11.2890625 C89.41982422 11.50820312 88.65605469 11.72734375 87.86914062 11.953125 C87.06669922 12.17484375 86.26425781 12.3965625 85.4375 12.625 C84.63119141 12.85445312 83.82488281 13.08390625 82.99414062 13.3203125 C80.99807797 13.88724154 78.99928081 14.44452643 77 15 C77.495 15.99 77.495 15.99 78 17 C78.94875 16.855625 79.8975 16.71125 80.875 16.5625 C85.56740347 15.88802722 90.28134412 15.44623104 95 15 C92.57395248 17.42604752 90.85807224 17.75843519 87.5625 18.625 C86.59441406 18.88539063 85.62632812 19.14578125 84.62890625 19.4140625 C82 20 82 20 79 20 C78.505 22.475 78.505 22.475 78 25 C78.72445312 24.7834375 79.44890625 24.566875 80.1953125 24.34375 C89.79789104 21.57820738 89.79789104 21.57820738 95 22 C92.29656789 24.70343211 89.28838599 25.15970399 85.6875 26.0625 C85.02298828 26.23587891 84.35847656 26.40925781 83.67382812 26.58789062 C80.13433581 27.5016468 76.5928239 28.32591118 73 29 C73 29.66 73 30.32 73 31 C71.46875 32.5078125 71.46875 32.5078125 69.5 34.125 C68.8503125 34.66382813 68.200625 35.20265625 67.53125 35.7578125 C67.0259375 36.16773438 66.520625 36.57765625 66 37 C67.17175781 36.51789063 68.34351563 36.03578125 69.55078125 35.5390625 C77.93377839 32.1489192 85.93120784 28.97879034 95 28 C95 28.66 95 29.32 95 30 C93.9584375 30.27972656 92.916875 30.55945313 91.84375 30.84765625 C84.11521647 32.98508448 76.61050582 35.36261876 69.25 38.5625 C68.59580078 38.84295166 67.94160156 39.12340332 67.26757812 39.41235352 C63.33634639 41.17496483 60.02967206 42.92592785 57 46 C56.48218166 48.73536915 56.27762801 50.87412713 56.29296875 53.609375 C56.27028679 54.69958954 56.27028679 54.69958954 56.24714661 55.81182861 C56.20428432 58.12486833 56.19543412 60.43660281 56.1875 62.75 C56.16435419 64.32164925 56.13898865 65.89326748 56.11132812 67.46484375 C56.04849166 71.3100111 56.01614483 75.15436458 56 79 C57.09699219 78.33613281 58.19398438 77.67226563 59.32421875 76.98828125 C61.92786494 75.41263167 62.67738767 74.97849251 65.8125 75.1875 C68 76 68 76 70 77 C72.5258505 76.77406383 74.99352216 76.48574541 77.5 76.125 C78.18964844 76.03347656 78.87929688 75.94195312 79.58984375 75.84765625 C83.41471879 75.34410776 83.41471879 75.34410776 87 74 C93.93 74 100.86 74 108 74 C108 51.23 108 28.46 108 5 C108.66 5 109.32 5 110 5 C110 6.65 110 8.3 110 10 C110.99 10 111.98 10 113 10 C113 33.1 113 56.2 113 80 C104.853125 80.66 96.70625 81.32 88.3125 82 C84.52712769 82.31324219 84.52712769 82.31324219 80.6652832 82.6328125 C59.71046916 84.31632475 39.91126508 84.15087298 19 82 C5.14 81.01 5.14 81.01 -9 80 C-9 56.9 -9 33.8 -9 10 C-7.68 10 -6.36 10 -5 10 C-5 8.02 -5 6.04 -5 4 C-3.35 4 -1.7 4 0 4 C0 2.68 0 1.36 0 0 Z " fill="#060606" transform="translate(198,206)"/>
<path d="M0 0 C-1 2 -1 2 -2.67407227 2.68603516 C-3.73452759 2.98453369 -3.73452759 2.98453369 -4.81640625 3.2890625 C-5.58017578 3.50820312 -6.34394531 3.72734375 -7.13085938 3.953125 C-7.93330078 4.17484375 -8.73574219 4.3965625 -9.5625 4.625 C-10.77196289 4.96917969 -10.77196289 4.96917969 -12.00585938 5.3203125 C-14.00192203 5.88724154 -16.00071919 6.44452643 -18 7 C-17.505 7.99 -17.505 7.99 -17 9 C-16.05125 8.855625 -15.1025 8.71125 -14.125 8.5625 C-9.43259653 7.88802722 -4.71865588 7.44623104 0 7 C-2.42604752 9.42604752 -4.14192776 9.75843519 -7.4375 10.625 C-8.40558594 10.88539063 -9.37367188 11.14578125 -10.37109375 11.4140625 C-13 12 -13 12 -16 12 C-16.33 13.65 -16.66 15.3 -17 17 C-16.27554688 16.7834375 -15.55109375 16.566875 -14.8046875 16.34375 C-5.20210896 13.57820738 -5.20210896 13.57820738 0 14 C-2.70343211 16.70343211 -5.71161401 17.15970399 -9.3125 18.0625 C-9.97701172 18.23587891 -10.64152344 18.40925781 -11.32617188 18.58789062 C-14.86566419 19.5016468 -18.4071761 20.32591118 -22 21 C-22 21.66 -22 22.32 -22 23 C-23.53125 24.5078125 -23.53125 24.5078125 -25.5 26.125 C-26.1496875 26.66382813 -26.799375 27.20265625 -27.46875 27.7578125 C-27.9740625 28.16773438 -28.479375 28.57765625 -29 29 C-27.82824219 28.51789063 -26.65648437 28.03578125 -25.44921875 27.5390625 C-17.06622161 24.1489192 -9.06879216 20.97879034 0 20 C0 20.66 0 21.32 0 22 C-1.0415625 22.27972656 -2.083125 22.55945313 -3.15625 22.84765625 C-10.88478353 24.98508448 -18.38949418 27.36261876 -25.75 30.5625 C-26.40419922 30.84295166 -27.05839844 31.12340332 -27.73242188 31.41235352 C-31.62001366 33.15539838 -34.88343844 35.0854378 -38 38 C-39.16402727 41.49208181 -39.21118508 44.39147772 -39.31640625 48.07421875 C-39.33718735 48.7580513 -39.35796844 49.44188385 -39.37937927 50.1464386 C-39.44466154 52.3266921 -39.50366017 54.50706405 -39.5625 56.6875 C-39.60570553 58.16732986 -39.64932047 59.64714783 -39.69335938 61.12695312 C-39.80032083 64.75117622 -39.90164823 68.37553189 -40 72 C-41.98 72 -43.96 72 -46 72 C-46.02803711 70.87356079 -46.02803711 70.87356079 -46.05664062 69.72436523 C-46.16461216 66.29282879 -46.33174609 62.86658789 -46.5 59.4375 C-46.52835938 58.25607422 -46.55671875 57.07464844 -46.5859375 55.85742188 C-46.90897071 50.09127909 -47.17586456 45.95548732 -51.546875 41.89453125 C-55.65840763 38.9292357 -59.98839466 36.93435985 -64.75 35.25 C-65.52843262 34.9605249 -66.30686523 34.6710498 -67.10888672 34.37280273 C-73.29409182 32.12334734 -79.55033726 30.32787174 -86 29 C-86 28.34 -86 27.68 -86 27 C-77.82765711 27.88203701 -70.69646588 30.49229796 -63.19580078 33.69946289 C-62.45185059 34.00875732 -61.70790039 34.31805176 -60.94140625 34.63671875 C-60.27826416 34.92248779 -59.61512207 35.20825684 -58.93188477 35.50268555 C-56.61916894 36.09803524 -55.23914679 35.74721354 -53 35 C-61.70050483 27.70629321 -75.22500577 24.82241759 -86 22 C-86 21.34 -86 20.68 -86 20 C-75.3460782 21.48540256 -64.66974967 25.31384569 -55.25 30.5 C-54.1775 30.995 -53.105 31.49 -52 32 C-49.81178878 31.16681545 -49.81178878 31.16681545 -48 30 C-48 28.35 -48 26.7 -48 25 C-47.34 24.67 -46.68 24.34 -46 24 C-46 25.32 -46 26.64 -46 28 C-45.34 28 -44.68 28 -44 28 C-42.74900384 25.74820691 -41.9852289 23.92245172 -41.5 21.375 C-41 19 -41 19 -39 17 C-38.505 18.98 -38.505 18.98 -38 21 C-35.35426499 18.77122275 -35.35426499 18.77122275 -33 16 C-33.27558616 13.8539508 -33.27558616 13.8539508 -34 12 C-10.44423502 -0.45824797 -10.44423502 -0.45824797 0 0 Z " fill="#181818" transform="translate(293,214)"/>
<path d="M0 0 C2.31 0 4.62 0 7 0 C7 1.32 7 2.64 7 4 C8.32 4.33 9.64 4.66 11 5 C10.67 27.77 10.34 50.54 10 74 C-0.395 74.495 -0.395 74.495 -11 75 C-11.99 75.495 -11.99 75.495 -13 76 C-15.43818982 76.39530415 -17.86399003 76.74739147 -20.3125 77.0625 C-21.30926758 77.19881836 -21.30926758 77.19881836 -22.32617188 77.33789062 C-25.90816785 77.80911265 -29.38740046 78.1048143 -33 78 C-32.01 77.01 -32.01 77.01 -31 76 C-31.66 75.34 -32.32 74.68 -33 74 C-30.02455559 72.86498523 -27.04403472 71.74390804 -24.0625 70.625 C-23.23169922 70.30789063 -22.40089844 69.99078125 -21.54492188 69.6640625 C-14.34625144 66.97506498 -7.72361811 65 0 65 C0 43.55 0 22.1 0 0 Z " fill="#383838" transform="translate(296,206)"/>
<path d="M0 0 C0.66 0 1.32 0 2 0 C2 0.66 2 1.32 2 2 C3.98 1.67 5.96 1.34 8 1 C8.33 1.99 8.66 2.98 9 4 C10.32 4 11.64 4 13 4 C13.12375 4.804375 13.2475 5.60875 13.375 6.4375 C13.58125 7.283125 13.7875 8.12875 14 9 C14.66 9.33 15.32 9.66 16 10 C16 14.33333333 16 18.66666667 16 23 C15.01 23 14.02 23 13 23 C13 24.65 13 26.3 13 28 C11.35 28 9.7 28 8 28 C8 28.99 8 29.98 8 31 C7.236875 30.979375 6.47375 30.95875 5.6875 30.9375 C2.89814214 30.87057159 2.89814214 30.87057159 0 32 C-0.97783091 34.10203332 -0.97783091 34.10203332 -1.60546875 36.69140625 C-1.86650391 37.63564453 -2.12753906 38.57988281 -2.39648438 39.55273438 C-2.65751953 40.54595703 -2.91855469 41.53917969 -3.1875 42.5625 C-3.46013672 43.55958984 -3.73277344 44.55667969 -4.01367188 45.58398438 C-4.68708504 48.05316598 -5.34860097 50.52493653 -6 53 C-8.61047801 51.694761 -8.68066423 50.64173426 -9.625 47.9375 C-9.88539062 47.20402344 -10.14578125 46.47054687 -10.4140625 45.71484375 C-10.60742188 45.14894531 -10.80078125 44.58304687 -11 44 C-12.98 44.99 -14.96 45.98 -17 47 C-15.65150163 42.64029169 -13.95092154 38.68658562 -11.875 34.625 C-11.33617188 33.56539063 -10.79734375 32.50578125 -10.2421875 31.4140625 C-9.83226563 30.61742187 -9.42234375 29.82078125 -9 29 C-9.66 28.67 -10.32 28.34 -11 28 C-11 26.35 -11 24.7 -11 23 C-11.99 23 -12.98 23 -14 23 C-13.979375 22.236875 -13.95875 21.47375 -13.9375 20.6875 C-13.87057159 17.89814214 -13.87057159 17.89814214 -15 15 C-14.34 15 -13.68 15 -13 15 C-13.33 13.02 -13.66 11.04 -14 9 C-13.01 9 -12.02 9 -11 9 C-11 7.35 -11 5.7 -11 4 C-9.68 4 -8.36 4 -7 4 C-6.67 3.01 -6.34 2.02 -6 1 C-3.03 1.495 -3.03 1.495 0 2 C0 1.34 0 0.68 0 0 Z " fill="#E0E0E0" transform="translate(125,254)"/>
<path d="M0 0 C7.92 0 15.84 0 24 0 C24 0.66 24 1.32 24 2 C25.32 2.33 26.64 2.66 28 3 C28.35858439 6.85478218 28.2754818 8.57759458 26.125 11.875 C25.42375 12.57625 24.7225 13.2775 24 14 C23.34 14 22.68 14 22 14 C21.773125 14.721875 21.54625 15.44375 21.3125 16.1875 C20 19 20 19 17.3125 21.5625 C16.549375 22.366875 15.78625 23.17125 15 24 C14.97714704 26.09160103 14.97714704 26.09160103 16 28 C17.84727567 29.13070444 17.84727567 29.13070444 20.0625 29.75 C21.361875 30.1625 22.66125 30.575 24 31 C24.33 34.63 24.66 38.26 25 42 C16.42 42 7.84 42 -1 42 C-0.67 38.37 -0.34 34.74 0 31 C2.97 29.68 5.94 28.36 9 27 C8.00385682 23.01542726 7.35061627 22.21455182 4.54296875 19.546875 C-3.72238262 11.26059869 -3.72238262 11.26059869 -4.4375 5.4375 C-4.293125 4.633125 -4.14875 3.82875 -4 3 C-2.68 2.67 -1.36 2.34 0 2 C0 1.34 0 0.68 0 0 Z " fill="#EEEEEE" transform="translate(238,354)"/>
<path d="M0 0 C-0.63672846 9.52897081 -2.63352704 18.76165362 -5 28 C-3.02 29.65 -1.04 31.3 1 33 C-2.58615579 35.79123965 -6.36668934 38.23545467 -10.1875 40.6875 C-10.82880859 41.10322266 -11.47011719 41.51894531 -12.13085938 41.94726562 C-16.87788639 45 -16.87788639 45 -18 45 C-18 38.4 -18 31.8 -18 25 C-20.84625 25.2475 -20.84625 25.2475 -23.75 25.5 C-30.18073547 26.00118795 -36.55321902 26.10454239 -43 26 C-32.58064335 15.37634224 -15.95738265 -0.40916366 0 0 Z " fill="#C0BCBC" transform="translate(162,309)"/>
<path d="M0 0 C14.60765158 1.73712613 30.26430294 14.55656277 41 24 C41 24.33 41 24.66 41 25 C32.09 25 23.18 25 14 25 C14.65284235 29.62198439 14.65284235 29.62198439 15.31640625 34.24243164 C15.9045985 38.52724876 16.08990456 42.67896208 16 47 C15.55011719 46.63648438 15.10023438 46.27296875 14.63671875 45.8984375 C9.09726001 41.56900081 3.23365797 38.23141829 -3 35 C0 32 0 32 3 29 C2.66764612 24.43013415 1.88525297 20.4682589 0.4375 16.125 C-1.16775912 11.07430669 -1.55408002 6.2744156 -1 1 C-0.67 0.67 -0.34 0.34 0 0 Z " fill="#BEBABA" transform="translate(340,308)"/>
<path d="M0 0 C1.0098999 0.01200439 2.0197998 0.02400879 3.06030273 0.03637695 C15.59333965 0.27403238 25.95281978 2.81289021 37.5625 7.3125 C37.5625 7.9725 37.5625 8.6325 37.5625 9.3125 C35.00098317 10.12821218 32.43837372 10.94016131 29.875 11.75 C29.15376953 11.98009766 28.43253906 12.21019531 27.68945312 12.44726562 C26.98369141 12.66962891 26.27792969 12.89199219 25.55078125 13.12109375 C24.90665283 13.32532959 24.26252441 13.52956543 23.59887695 13.73999023 C16.76254776 15.66196505 9.95779656 15.56960006 2.91015625 15.60766602 C1.44618994 15.61908315 -0.01773823 15.63936832 -1.48144531 15.66918945 C-12.15567856 15.88601739 -21.24329461 14.60002441 -31.4375 11.3125 C-31.4375 9.9925 -31.4375 8.6725 -31.4375 7.3125 C-21.11792168 2.29285326 -11.50054792 -0.21381518 0 0 Z " fill="#FCFCFC" transform="translate(249.4375,331.6875)"/>
<path d="M0 0 C1.23830566 0.28045166 2.47661133 0.56090332 3.75244141 0.84985352 C8.061093 1.85335898 12.34238503 2.95404169 16.625 4.0625 C18.12092519 4.44402092 19.61701794 4.82488543 21.11328125 5.20507812 C24.74414957 6.12916331 28.37267338 7.06209609 32 8 C32 8.33 32 8.66 32 9 C18.30903057 9.16741675 4.67449331 8.6492751 -9 8 C-8.505 8.99 -8.505 8.99 -8 10 C-5.1836191 10.47167268 -5.1836191 10.47167268 -1.77734375 10.6328125 C-0.51728516 10.71660156 0.74277344 10.80039063 2.04101562 10.88671875 C3.38149822 10.96635138 4.72199321 11.04577574 6.0625 11.125 C7.4069576 11.21136357 8.75135995 11.29859195 10.09570312 11.38671875 C13.39668849 11.59968555 16.69798811 11.80370339 20 12 C15.63193431 14.32382085 11.14395259 15.45487676 6.375 16.6875 C5.52292969 16.92533203 4.67085938 17.16316406 3.79296875 17.40820312 C-8.15442724 20.48994445 -19.00178268 16.94590768 -30.625 13.9375 C-32.12092519 13.55597908 -33.61701794 13.17511457 -35.11328125 12.79492188 C-38.74414957 11.87083669 -42.37267338 10.93790391 -46 10 C-46 9.34 -46 8.68 -46 8 C-41.06162685 6.67822063 -36.11800605 5.37914957 -31.16845703 4.09985352 C-29.48913812 3.66253424 -27.8113503 3.21928742 -26.13525391 2.76977539 C-8.29273075 -2.00700493 -8.29273075 -2.00700493 0 0 Z " fill="#F6F6F6" transform="translate(257,168)"/>
<path d="M0 0 C0.66 0 1.32 0 2 0 C2 0.66 2 1.32 2 2 C3.98 1.67 5.96 1.34 8 1 C8.33 1.99 8.66 2.98 9 4 C10.32 4 11.64 4 13 4 C13 5.65 13 7.3 13 9 C13.99 9 14.98 9 16 9 C15.67 10.98 15.34 12.96 15 15 C15.66 15 16.32 15 17 15 C16.67 17.64 16.34 20.28 16 23 C15.01 23 14.02 23 13 23 C13 24.65 13 26.3 13 28 C11.35 28 9.7 28 8 28 C8 28.99 8 29.98 8 31 C3.33333333 31 -1.33333333 31 -6 31 C-6 30.01 -6 29.02 -6 28 C-7.65 28 -9.3 28 -11 28 C-11 26.35 -11 24.7 -11 23 C-11.99 23 -12.98 23 -14 23 C-13.979375 22.236875 -13.95875 21.47375 -13.9375 20.6875 C-13.87057159 17.89814214 -13.87057159 17.89814214 -15 15 C-14.34 15 -13.68 15 -13 15 C-13.33 13.02 -13.66 11.04 -14 9 C-13.01 9 -12.02 9 -11 9 C-11 7.68 -11 6.36 -11 5 C-10.401875 4.896875 -9.80375 4.79375 -9.1875 4.6875 C-6.90759282 4.17030653 -6.90759282 4.17030653 -5.5 2.375 C-5.005 1.92125 -4.51 1.4675 -4 1 C-1.8125 1.3125 -1.8125 1.3125 0 2 C0 1.34 0 0.68 0 0 Z " fill="#0B0B0B" transform="translate(372,252)"/>
<path d="M0 0 C4.33976986 2.25334204 7.09688482 4.45366929 9 9 C9.53952431 14.03556026 9.04234376 16.94354166 6 21 C3.06904376 24.41944895 0.70823406 24.93033763 -3.8125 25.375 C-7.03178905 25.33349904 -8.83510531 24.80322827 -11.375 22.8125 C-14.73760099 19.20971323 -15.758606 16.89091969 -16.375 12.0625 C-15.77375256 7.15231255 -13.47795875 4.19834493 -9.6875 1.125 C-6.16108808 -0.35117243 -3.79611 -0.46618895 0 0 Z " fill="#EFEFEF" transform="translate(214,112)"/>
<path d="M0 0 C4.09553782 -0.32764303 6.53860663 -0.23069669 10.25 1.625 C13.37948288 4.32773522 14.71485486 6.0689678 16 10 C16.20237962 14.29213444 15.48429721 17.23180443 13.1875 20.875 C9.77860614 24.18649689 7.58444828 25.10548624 2.875 25.25 C-1 25 -1 25 -3 23 C-2.67 22.67 -2.34 22.34 -2 22 C-2.825 21.360625 -3.65 20.72125 -4.5 20.0625 C-7.41119584 16.4962851 -7.85007889 14.70704767 -7.640625 10.21875 C-6.63607239 6.73956778 -4.42688445 5.20800882 -1.53125 3.19140625 C-1.0259375 2.79824219 -0.520625 2.40507812 0 2 C0 1.34 0 0.68 0 0 Z " fill="#101010" transform="translate(123,258)"/>
<path d="M0 0 C7.92 0 15.84 0 24 0 C24 1.65 24 3.3 24 5 C18.06 5.495 18.06 5.495 12 6 C15.63 7.65 19.26 9.3 23 11 C23 12.32 23 13.64 23 15 C19.37 15.99 15.74 16.98 12 18 C17.445 19.485 17.445 19.485 23 21 C23 22.65 23 24.3 23 26 C14.62504986 25.61387352 6.99730769 24.54824033 -1 22 C-1 20.02 -1 18.04 -1 16 C3.29 14.68 7.58 13.36 12 12 C8.04 10.02 4.08 8.04 0 6 C0 4.02 0 2.04 0 0 Z " fill="#F5F5F5" transform="translate(116,220)"/>
<path d="M0 0 C1.32 0 2.64 0 4 0 C4 21.12 4 42.24 4 64 C8.95 64.33 13.9 64.66 19 65 C23.74609375 65.97265625 23.74609375 65.97265625 27.4375 67.0625 C28.69433594 67.42472656 29.95117188 67.78695312 31.24609375 68.16015625 C32.60927734 68.57587891 32.60927734 68.57587891 34 69 C34 69.33 34 69.66 34 70 C30.9582272 69.85617372 27.9165973 69.70995805 24.875 69.5625 C24.03839844 69.52318359 23.20179688 69.48386719 22.33984375 69.44335938 C14.87884431 69.07872406 7.45737728 68.53266981 0 68 C0 45.56 0 23.12 0 0 Z " fill="#DCDCDC" transform="translate(194,212)"/>
<path d="M0 0 C9.79462216 0.18868799 9.79462216 0.18868799 14.25 3.1875 C16 6 16 6 16.0625 9.0625 C15 12 15 12 11 16 C12.98 19.3 14.96 22.6 17 26 C13.8125 26.5 13.8125 26.5 10 26 C7.44648935 23.23158994 5 19.86112137 5 16 C4.34 16 3.68 16 3 16 C3 18.64 3 21.28 3 24 C1.02 24 -0.96 24 -3 24 C-2.69408272 20.37441264 -2.37915282 16.74966425 -2.0625 13.125 C-1.97548828 12.09246094 -1.88847656 11.05992188 -1.79882812 9.99609375 C-1.71181641 9.00996094 -1.62480469 8.02382812 -1.53515625 7.0078125 C-1.456604 6.09660645 -1.37805176 5.18540039 -1.29711914 4.24658203 C-1 2 -1 2 0 0 Z " fill="#EFEFEF" transform="translate(256,106)"/>
<path d="M0 0 C1.12894876 0.93274109 2.25300876 1.87140122 3.375 2.8125 C4.00148438 3.33457031 4.62796875 3.85664063 5.2734375 4.39453125 C7 6 7 6 9 9 C8.78087649 15.13545817 8.78087649 15.13545817 6.25 17.9375 C3.64597372 19.16717908 1.84687774 19.23723981 -1 19 C-2.27253436 22.64793184 -3.32829194 26.1936543 -4 30 C-5.65 28.68 -7.3 27.36 -9 26 C-8.34 22.37 -7.68 18.74 -7 15 C-10.465 17.475 -10.465 17.475 -14 20 C-14.99 19.01 -15.98 18.02 -17 17 C-15.47229036 13.24473608 -13.21377694 11.14969375 -10.1875 8.5 C-8.90939453 7.37078125 -8.90939453 7.37078125 -7.60546875 6.21875 C-5.10916671 4.09296356 -2.57272863 2.03231705 0 0 Z " fill="#F3F3F3" transform="translate(344,145)"/>
<path d="M0 0 C2.51190879 3.55853745 3.82733047 5.89923177 4.5 10.1875 C4 13 4 13 2.4375 15.375 C-0.85066094 17.56710729 -3.12575435 17.35872645 -7 17 C-7.66 16.67 -8.32 16.34 -9 16 C-9.12375 16.70125 -9.2475 17.4025 -9.375 18.125 C-10.03838345 21.17656387 -10.97211955 24.05340938 -12 27 C-14.0625 25.375 -14.0625 25.375 -16 23 C-15.90038112 18.41753169 -14.17658826 14.97463943 -12 11 C-15.96 12.98 -15.96 12.98 -20 15 C-20.66 13.35 -21.32 11.7 -22 10 C-17.47833622 6.88935187 -12.91261331 3.85675306 -8.1875 1.0625 C-7.47980469 0.64097656 -6.77210938 0.21945313 -6.04296875 -0.21484375 C-3.5255516 -1.18234059 -2.45476981 -1.08193596 0 0 Z " fill="#F3F3F3" transform="translate(364,168)"/>
<path d="M0 0 C7.92 0 15.84 0 24 0 C24.390625 9.86328125 24.390625 9.86328125 24 13 C21.58966254 15.50324126 20.41216093 15.94953131 16.9375 16.375 C14 16 14 16 12.125 14.5 C11.75375 14.005 11.3825 13.51 11 13 C7.05860922 14.66751148 4.2107188 17.22710649 1 20 C0.2769556 12.89006342 0.2769556 12.89006342 2.3359375 10.35546875 C4 9 4 9 7 7 C4.69 6.67 2.38 6.34 0 6 C0 4.02 0 2.04 0 0 Z " fill="#F4F4F4" transform="translate(360,227)"/>
<path d="M0 0 C2.18614424 2.18614424 2.68256535 3.53879949 3.625 6.4375 C3.88539063 7.21996094 4.14578125 8.00242188 4.4140625 8.80859375 C5 11 5 11 5 14 C5.80824219 13.7834375 6.61648437 13.566875 7.44921875 13.34375 C8.51785156 13.0653125 9.58648437 12.786875 10.6875 12.5 C12.27111328 12.08234375 12.27111328 12.08234375 13.88671875 11.65625 C16.71142672 11.0608285 19.12836708 10.87213508 22 11 C20.23834197 15.84455959 20.23834197 15.84455959 18 18 C13.99721141 18.93682286 10.10031203 19.04512922 6 19 C6 19.66 6 20.32 6 21 C6.78375 21.309375 7.5675 21.61875 8.375 21.9375 C11 23 11 23 13 24 C12.67 25.65 12.34 27.3 12 29 C6.75118824 28.51342376 2.9926886 25.73452602 -1.3125 22.9375 C-2.05306641 22.46505859 -2.79363281 21.99261719 -3.55664062 21.50585938 C-5.37551219 20.34412851 -7.1883659 19.17298518 -9 18 C-8.67 16.35 -8.34 14.7 -8 13 C-4.51460083 13.64544429 -1.97180943 15.10134397 1 17 C0.68804687 16.34773438 0.37609375 15.69546875 0.0546875 15.0234375 C-3.15693904 7.81322957 -3.15693904 7.81322957 -2.3125 3.4375 C-1 1 -1 1 0 0 Z " fill="#EFEFEF" transform="translate(139,163)"/>
<path d="M0 0 C-0.33 1.98 -0.66 3.96 -1 6 C-2.98 6 -4.96 6 -7 6 C-7.22174933 7.45635371 -7.42698698 8.91522956 -7.625 10.375 C-7.74101562 11.18710938 -7.85703125 11.99921875 -7.9765625 12.8359375 C-7.98429687 13.55007812 -7.99203125 14.26421875 -8 15 C-7.34 15.66 -6.68 16.32 -6 17 C-6.375 20.125 -6.375 20.125 -7 23 C-11.52844062 20.50244401 -15.33117661 17.40000415 -19.25 14.0625 C-19.88679687 13.53720703 -20.52359375 13.01191406 -21.1796875 12.47070312 C-21.78554687 11.95572266 -22.39140625 11.44074219 -23.015625 10.91015625 C-23.56508789 10.44746338 -24.11455078 9.98477051 -24.68066406 9.50805664 C-26.27066524 7.69061821 -26.69241428 6.38139567 -27 4 C-26.67 3.34 -26.34 2.68 -26 2 C-21.28481044 0.57885504 -16.20185659 0.66225565 -11.3125 0.4375 C-10.0121582 0.37272461 -10.0121582 0.37272461 -8.68554688 0.30664062 C-2.43105159 0 -2.43105159 0 0 0 Z " fill="#F5F5F5" transform="translate(148,195)"/>
<path d="M0 0 C5.20214712 0.47292247 9.70484805 1.43395686 14.625 3.16796875 C17.19237335 4.06739395 19.77423856 4.88988276 22.375 5.6875 C23.18710938 5.93886719 23.99921875 6.19023437 24.8359375 6.44921875 C27.11237686 7.12332471 27.11237686 7.12332471 30 7 C31.82421875 8.53125 31.82421875 8.53125 33.6875 10.5 C34.31011719 11.1496875 34.93273437 11.799375 35.57421875 12.46875 C36.04472656 12.9740625 36.51523438 13.479375 37 14 C36.01 15.32 35.02 16.64 34 18 C34.66 18.33 35.32 18.66 36 19 C36 19.66 36 20.32 36 21 C34.88625 20.814375 33.7725 20.62875 32.625 20.4375 C29.17431139 19.68319343 29.17431139 19.68319343 27 21 C29.97 22.65 32.94 24.3 36 26 C36 26.66 36 27.32 36 28 C30.34636872 26.20111732 30.34636872 26.20111732 28.0625 24.875 C25.04232598 23.59371405 22.23675602 23.87550938 19 24 C19 22.68 19 21.36 19 20 C17.72125 19.731875 16.4425 19.46375 15.125 19.1875 C9.99937583 18.0548104 5.00710512 16.56798699 0 15 C0 14.67 0 14.34 0 14 C5.74896911 14.45626739 10.65223932 15.35540863 16.0546875 17.37890625 C18.13596903 18.15207549 18.13596903 18.15207549 21 18 C21 17.01 21 16.02 21 15 C19.90300781 14.66226562 18.80601562 14.32453125 17.67578125 13.9765625 C16.22132093 13.52614898 14.76689569 13.07562216 13.3125 12.625 C12.59126953 12.40328125 11.87003906 12.1815625 11.12695312 11.953125 C7.3471027 10.77947281 3.65079726 9.54096768 0 8 C3.68611902 6.67973141 6.26851412 7.3283206 10 8.3125 C11.03125 8.57675781 12.0625 8.84101563 13.125 9.11328125 C16 10 16 10 18.125 11.10546875 C20.25545614 12.28706024 20.25545614 12.28706024 24 12 C24.33 11.01 24.66 10.02 25 9 C23.62542692 8.58192708 22.25029719 8.16568468 20.875 7.75 C19.52728516 7.34201172 19.52728516 7.34201172 18.15234375 6.92578125 C15.85999684 6.25256413 13.55921191 5.60787728 11.25390625 4.98046875 C9.99449219 4.63628906 8.73507813 4.29210937 7.4375 3.9375 C6.23996094 3.61652344 5.04242188 3.29554688 3.80859375 2.96484375 C1 2 1 2 0 0 Z " fill="#171717" transform="translate(207,248)"/>
<path d="M0 0 C0.99 0 1.98 0 3 0 C3 22.44 3 44.88 3 68 C-7.395 68.495 -7.395 68.495 -18 69 C-18.99 69.495 -18.99 69.495 -20 70 C-22.54615009 70.23172827 -25.07396225 70.41894529 -27.625 70.5625 C-28.33140625 70.60568359 -29.0378125 70.64886719 -29.765625 70.69335938 C-31.51018537 70.79944751 -33.25506697 70.90022889 -35 71 C-25.51049627 64.67366418 -11.41658989 64.56248848 -1 63 C-0.67 42.21 -0.34 21.42 0 0 Z " fill="#F5F5F5" transform="translate(303,212)"/>
<path d="M0 0 C0.94496943 3.69083804 0.97584579 6.18887566 0.00390625 9.86328125 C-0.22490234 10.74951172 -0.45371094 11.63574219 -0.68945312 12.54882812 C-0.93630859 13.46083984 -1.18316406 14.37285156 -1.4375 15.3125 C-1.68048828 16.24384766 -1.92347656 17.17519531 -2.17382812 18.13476562 C-2.77303989 20.42586944 -3.38200744 22.71390412 -4 25 C-5.32 25 -6.64 25 -8 25 C-9 20.25 -9 20.25 -9 18 C-12.53509289 14.98223778 -14.16237408 13.94595962 -18.875 14.25 C-19.90625 14.4975 -20.9375 14.745 -22 15 C-22.66 14.01 -23.32 13.02 -24 12 C-18.9587855 8.37461595 -13.87023592 4.82510491 -8.625 1.5 C-7.83351563 0.9946875 -7.04203125 0.489375 -6.2265625 -0.03125 C-3.64256625 -1.15551503 -2.58624059 -0.99198269 0 0 Z " fill="#F7F7F7" transform="translate(330,132)"/>
<path d="M0 0 C1.65 0 3.3 0 5 0 C6.22109588 4.37001146 6.25873755 8.55003842 6.3125 13.0625 C6.34150391 13.87783203 6.37050781 14.69316406 6.40039062 15.53320312 C6.46358772 21.44942328 6.46358772 21.44942328 4.29296875 24.02734375 C0.21482152 25.75725629 -3.66771245 25.77130577 -8 25 C-11.51068398 22.00307465 -12.33858534 19.44270981 -13 15 C-13.06701506 12.56333235 -13.08528021 10.12498258 -13.0625 7.6875 C-13.05347656 6.43324219 -13.04445312 5.17898437 -13.03515625 3.88671875 C-13.01775391 2.45779297 -13.01775391 2.45779297 -13 1 C-11.35 1 -9.7 1 -8 1 C-7.86722656 2.13179688 -7.73445312 3.26359375 -7.59765625 4.4296875 C-7.4194658 5.91148179 -7.24106971 7.39325136 -7.0625 8.875 C-6.97548828 9.62136719 -6.88847656 10.36773437 -6.79882812 11.13671875 C-6.36673937 15.1953231 -6.36673937 15.1953231 -5 19 C-3.35 18.67 -1.7 18.34 0 18 C0 12.06 0 6.12 0 0 Z " fill="#F3F3F3" transform="translate(241,106)"/>
<path d="M0 0 C2.875 1.5625 2.875 1.5625 5 4 C5.61453775 7.82379043 5.66827156 9.95400973 3.5625 13.25 C-0.81418799 16.23895765 -5.59349693 18.25601096 -10.9375 17.6875 C-11.618125 17.460625 -12.29875 17.23375 -13 17 C-13.66 17 -14.32 17 -15 17 C-15.33 18.65 -15.66 20.3 -16 22 C-16.99 22 -17.98 22 -19 22 C-19 16.72 -19 11.44 -19 6 C-14.21861363 6 -13.615713 6.83227012 -10.25 10 C-9.45078125 10.7425 -8.6515625 11.485 -7.828125 12.25 C-7.22484375 12.8275 -6.6215625 13.405 -6 14 C-6.2165625 13.31292969 -6.433125 12.62585938 -6.65625 11.91796875 C-6.9346875 11.01691406 -7.213125 10.11585938 -7.5 9.1875 C-7.7784375 8.29417969 -8.056875 7.40085937 -8.34375 6.48046875 C-9 4 -9 4 -9 1 C-5.66660588 -0.11113137 -3.49519344 -0.34951934 0 0 Z " fill="#131313" transform="translate(219,311)"/>
<path d="M0 0 C0.66 0 1.32 0 2 0 C2 0.66 2 1.32 2 2 C3.98 1.67 5.96 1.34 8 1 C8.33 1.99 8.66 2.98 9 4 C9.99 4.33 10.98 4.66 12 5 C11.67 6.32 11.34 7.64 11 9 C9.7934375 7.9171875 9.7934375 7.9171875 8.5625 6.8125 C4.69686899 4.84577545 4.25721325 4.78720941 0.375 6 C-3.1665046 7.46318487 -5.92454681 8.66122748 -8 12 C-8.60421295 16.68265038 -8.62847002 19.53852018 -6 23.5 C-5.34 24.325 -4.68 25.15 -4 26 C-5.32 25.67 -6.64 25.34 -8 25 C-4.41882547 27.6858809 -1.5018015 28.53894543 3.00390625 28.3515625 C6.39677841 27.75399206 8.45211152 26.24456842 11 24 C13.70666377 19.69394401 13.19285701 14.91785365 13 10 C13.99 10 14.98 10 16 10 C15.67 11.65 15.34 13.3 15 15 C15.66 15 16.32 15 17 15 C16.67 17.64 16.34 20.28 16 23 C15.01 23 14.02 23 13 23 C13 24.65 13 26.3 13 28 C11.35 28 9.7 28 8 28 C8 28.99 8 29.98 8 31 C3.33333333 31 -1.33333333 31 -6 31 C-6 30.01 -6 29.02 -6 28 C-7.65 28 -9.3 28 -11 28 C-11 26.35 -11 24.7 -11 23 C-11.99 23 -12.98 23 -14 23 C-13.979375 22.236875 -13.95875 21.47375 -13.9375 20.6875 C-13.87057159 17.89814214 -13.87057159 17.89814214 -15 15 C-14.34 15 -13.68 15 -13 15 C-13.33 13.02 -13.66 11.04 -14 9 C-13.01 9 -12.02 9 -11 9 C-11 7.68 -11 6.36 -11 5 C-10.401875 4.896875 -9.80375 4.79375 -9.1875 4.6875 C-6.90759282 4.17030653 -6.90759282 4.17030653 -5.5 2.375 C-5.005 1.92125 -4.51 1.4675 -4 1 C-1.8125 1.3125 -1.8125 1.3125 0 2 C0 1.34 0 0.68 0 0 Z " fill="#8D8D8D" transform="translate(372,252)"/>
<path d="M0 0 C1.45184478 4.53701494 2.23509196 8.18061476 2 13 C0.68 13.33 -0.64 13.66 -2 14 C-3.25664978 11.09399739 -4 9.20395416 -4 6 C-5.32 6.33 -6.64 6.66 -8 7 C-7.67 9.64 -7.34 12.28 -7 15 C-8.65 15.33 -10.3 15.66 -12 16 C-12.33 13.36 -12.66 10.72 -13 8 C-14.65 8.33 -16.3 8.66 -18 9 C-17.34 11.97 -16.68 14.94 -16 18 C-17.65 18 -19.3 18 -21 18 C-22.29925791 13.66914029 -23.343621 9.48525648 -24 5 C-22.42295834 4.54441019 -20.84532179 4.0908277 -19.265625 3.64453125 C-17.60655728 3.17255509 -15.95072641 2.68916028 -14.296875 2.19921875 C-9.4296273 0.79622795 -5.12285549 -0.41536666 0 0 Z " fill="#EBEBEB" transform="translate(380,204)"/>
<path d="M0 0 C1.97431912 1.23351265 3.88713525 2.50989098 5.76953125 3.87890625 C5.10953125 5.19890625 4.44953125 6.51890625 3.76953125 7.87890625 C1.60078873 7.37286633 -0.23014502 6.87906812 -2.23046875 5.87890625 C-5.73046875 5.62890625 -5.73046875 5.62890625 -9.23046875 5.87890625 C-11.59457363 7.81622153 -11.59457363 7.81622153 -11.54296875 11.31640625 C-11.50527799 14.73085519 -11.50527799 14.73085519 -10.10546875 16.75390625 C-7.55662169 18.28321448 -5.15808402 18.55361566 -2.23046875 18.87890625 C-2.23046875 20.85890625 -2.23046875 22.83890625 -2.23046875 24.87890625 C-8.33546324 24.66469592 -11.35800949 23.55143196 -15.8828125 19.44921875 C-18.50685089 16.39164358 -18.62524406 12.85607174 -18.58203125 8.9453125 C-17.84367691 4.60542975 -14.81935304 2.04408806 -11.35546875 -0.49609375 C-7.28304623 -1.69386508 -3.8726297 -1.94648813 0 0 Z " fill="#EFEFEF" transform="translate(307.23046875,118.12109375)"/>
<path d="M0 0 C0.99 0 1.98 0 3 0 C3 21.45 3 42.9 3 65 C6.3 65.33 9.6 65.66 13 66 C15.78759766 66.66430664 15.78759766 66.66430664 17.9140625 67.41015625 C18.69394531 67.67763672 19.47382813 67.94511719 20.27734375 68.22070312 C21.05207031 68.49849609 21.82679688 68.77628906 22.625 69.0625 C23.84509766 69.48499023 23.84509766 69.48499023 25.08984375 69.91601562 C27.06330786 70.60092376 29.03217874 71.29904406 31 72 C26.95789247 73.34736918 23.92303824 72.16745766 19.9375 71.125 C14.18011888 69.68138185 8.63314983 68.52729771 2.6875 68.17578125 C1 68 1 68 0 67 C-0.09417773 64.91380978 -0.11742878 62.82439523 -0.11352539 60.73608398 C-0.11367142 60.08244873 -0.11381744 59.42881348 -0.1139679 58.75537109 C-0.11326883 56.58557872 -0.10547678 54.41587121 -0.09765625 52.24609375 C-0.09579205 50.74536689 -0.09436816 49.24463943 -0.09336853 47.74391174 C-0.08954352 43.78681774 -0.0797134 39.82976022 -0.06866455 35.87268066 C-0.05845006 31.83765151 -0.05387083 27.80261647 -0.04882812 23.76757812 C-0.03809111 15.84503531 -0.0210149 7.92252219 0 0 Z " fill="#EFEFEF" transform="translate(199,207)"/>
<path d="M0 0 C1.32 0.66 2.64 1.32 4 2 C3.319375 2.928125 2.63875 3.85625 1.9375 4.8125 C1.298125 5.864375 0.65875 6.91625 0 8 C0.33 8.99 0.66 9.98 1 11 C3.36278736 11.22988506 3.36278736 11.22988506 5.625 8.5 C6.40875 7.675 7.1925 6.85 8 6 C8.99 7.32 9.98 8.64 11 10 C9.68 11.32 8.36 12.64 7 14 C7.33 14.99 7.66 15.98 8 17 C8.5775 16.71125 9.155 16.4225 9.75 16.125 C11.83333333 15.08333333 13.91666667 14.04166667 16 13 C16.66 14.32 17.32 15.64 18 17 C15.69 19.64 13.38 22.28 11 25 C5.93708127 23.98741625 5.28526858 23.75616132 2.0625 20.25 C-1.12988776 16.88194005 -4.37866722 13.89706623 -8 11 C-7.43040847 7.37386801 -6.07625466 5.74482259 -3.4375 3.25 C-2.79683594 2.63640625 -2.15617188 2.0228125 -1.49609375 1.390625 C-1.00238281 0.93171875 -0.50867188 0.4728125 0 0 Z " fill="#F2F2F2" transform="translate(154,146)"/>
<path d="M0 0 C0.99 0 1.98 0 3 0 C3 21.78 3 43.56 3 66 C0.00413241 67.4979338 -3.20790514 67.52480909 -6.5 67.875 C-12.28006102 68.5260099 -17.58723876 69.5161917 -23.08203125 71.51171875 C-25 72 -25 72 -28 71 C-25.21258088 70.0070958 -22.42100484 69.03068868 -19.625 68.0625 C-18.85027344 67.78470703 -18.07554687 67.50691406 -17.27734375 67.22070312 C-16.49746094 66.95322266 -15.71757812 66.68574219 -14.9140625 66.41015625 C-14.2123291 66.16402588 -13.5105957 65.91789551 -12.78759766 65.66430664 C-8.60620759 64.66784821 -4.27715 64.427715 0 64 C0 42.88 0 21.76 0 0 Z " fill="#FEFEFE" transform="translate(298,208)"/>
<path d="M0 0 C10 1 10 1 14 3 C10 4 10 4 2 2 C2 24.11 2 46.22 2 69 C5.63 69.33 9.26 69.66 13 70 C16.26831055 70.84790039 16.26831055 70.84790039 18.88671875 71.84765625 C20.32241211 72.38422852 20.32241211 72.38422852 21.78710938 72.93164062 C23.22280273 73.49141602 23.22280273 73.49141602 24.6875 74.0625 C25.68716797 74.43955078 26.68683594 74.81660156 27.71679688 75.20507812 C30.14945875 76.12460103 32.57665711 77.05625273 35 78 C33.02 78.99 33.02 78.99 31 80 C31.99 80.66 32.98 81.32 34 82 C32.35333797 81.8864371 30.70763918 81.75882619 29.0625 81.625 C28.14597656 81.55539062 27.22945312 81.48578125 26.28515625 81.4140625 C25.53105469 81.27742188 24.77695313 81.14078125 24 81 C23.505 80.01 23.505 80.01 23 79 C21.11235097 78.31527335 21.11235097 78.31527335 18.9375 77.875 C18.20402344 77.70742188 17.47054687 77.53984375 16.71484375 77.3671875 C15.86599609 77.18542969 15.86599609 77.18542969 15 77 C18 75 18 75 20.6875 75.375 C21.8321875 75.684375 21.8321875 75.684375 23 76 C21.04379422 75.36837243 19.08488929 74.74510354 17.125 74.125 C16.03445312 73.77695312 14.94390625 73.42890625 13.8203125 73.0703125 C9.27619666 71.79721665 4.62744341 70.92548868 0 70 C0 46.9 0 23.8 0 0 Z " fill="#333333" transform="translate(202,202)"/>
<path d="M0 0 C0.02578125 1.22976562 0.0515625 2.45953125 0.078125 3.7265625 C0.13443006 5.35940932 0.19177685 6.99222045 0.25 8.625 C0.26417969 9.43324219 0.27835938 10.24148437 0.29296875 11.07421875 C0.52074898 16.6776123 1.58856781 19.56513816 5 24 C5 24.66 5 25.32 5 26 C3.35 26.66 1.7 27.32 0 28 C-0.515625 26.824375 -1.03125 25.64875 -1.5625 24.4375 C-5.52412183 17.90082399 -13.21561885 15.73082009 -20 13 C-16.34558824 9.19117647 -16.34558824 9.19117647 -13 9 C-9.75 10.4375 -9.75 10.4375 -7 12 C-6.97873047 11.07767578 -6.97873047 11.07767578 -6.95703125 10.13671875 C-6.81125798 7.66645286 -6.60067213 5.4026885 -6 3 C-2.36363636 0 -2.36363636 0 0 0 Z " fill="#ECECEC" transform="translate(189,120)"/>
<path d="M0 0 C2.375 -0.1875 2.375 -0.1875 5 0 C5.66 0.99 6.32 1.98 7 3 C6.67 3.66 6.34 4.32 6 5 C6.5775 4.649375 7.155 4.29875 7.75 3.9375 C10.35801776 2.85082593 11.39417629 3.06934867 14 4 C14.33 5.65 14.66 7.3 15 9 C14.01 9.66 13.02 10.32 12 11 C12 10.01 12 9.02 12 8 C11.67 7.01 11.34 6.02 11 5 C9.68 5.33 8.36 5.66 7 6 C7 6.99 7 7.98 7 9 C4.34771188 10.07525194 1.71631546 11.09456151 -1 12 C-1 12.66 -1 13.32 -1 14 C-0.01 14 0.98 14 2 14 C2.33 14.66 2.66 15.32 3 16 C3.99 16.33 4.98 16.66 6 17 C5.34 17.33 4.68 17.66 4 18 C4.34786708 19.97536745 4.34786708 19.97536745 5 22 C5.66 22.33 6.32 22.66 7 23 C7 20.03 7 17.06 7 14 C7.66 13.67 8.32 13.34 9 13 C9 14.32 9 15.64 9 17 C10.65 17 12.3 17 14 17 C13.67 17.66 13.34 18.32 13 19 C11.68 18.67 10.36 18.34 9 18 C8.67 19.98 8.34 21.96 8 24 C5.6875 23.9375 5.6875 23.9375 3 23 C1.93097061 20.69747517 0.92824183 18.3627974 0 16 C-0.99 15.67 -1.98 15.34 -3 15 C-3 15.66 -3 16.32 -3 17 C-3.66 17 -4.32 17 -5 17 C-5.33 17.99 -5.66 18.98 -6 20 C-6 18.35 -6 16.7 -6 15 C-5.34 14.67 -4.68 14.34 -4 14 C-4.680625 13.4225 -5.36125 12.845 -6.0625 12.25 C-6.701875 11.5075 -7.34125 10.765 -8 10 C-7.75 7.75 -7.75 7.75 -7 6 C-5.35 6 -3.7 6 -2 6 C-1.34 4.02 -0.68 2.04 0 0 Z " fill="#9E9E9E" transform="translate(246,190)"/>
<path d="M0 0 C2.4375 1.5625 2.4375 1.5625 4 4 C4.55802097 7.90614682 4.58392818 10.05111671 2.5 13.4375 C-1.27828899 15.79893062 -3.57790439 15.56153595 -8 15 C-10.91781637 12.72045596 -10.97820387 11.17436907 -11.4375 7.5 C-11 4 -11 4 -9.4375 1.5625 C-6.05782196 -0.60396028 -3.94016013 -0.56288002 0 0 Z " fill="#0B0B0B" transform="translate(251,306)"/>
<path d="M0 0 C6.6 0 13.2 0 20 0 C20 2.97 20 5.94 20 9 C13.4 9 6.8 9 0 9 C0 6.03 0 3.06 0 0 Z " fill="#0C0C0C" transform="translate(240,386)"/>
<path d="M0 0 C0.33 0 0.66 0 1 0 C1 21.12 1 42.24 1 64 C-4.28 65.32 -9.56 66.64 -15 68 C-17.97 68.99 -17.97 68.99 -21 70 C-19.69675781 69.65775391 -19.69675781 69.65775391 -18.3671875 69.30859375 C-16.63855469 68.87740234 -16.63855469 68.87740234 -14.875 68.4375 C-13.16957031 68.00244141 -13.16957031 68.00244141 -11.4296875 67.55859375 C-7.93510616 66.98943073 -5.42796653 67.21333899 -2 68 C-2 68.33 -2 68.66 -2 69 C-3.11117188 69.19335938 -4.22234375 69.38671875 -5.3671875 69.5859375 C-13.26415995 70.96615467 -21.15164172 72.36090798 -29 74 C-29 74.66 -29 75.32 -29 76 C-30.65 76 -32.3 76 -34 76 C-33.01 75.01 -33.01 75.01 -32 74 C-32.66 73.34 -33.32 72.68 -34 72 C-31.12945219 70.88299579 -28.25429921 69.78154565 -25.375 68.6875 C-24.58609375 68.37876953 -23.7971875 68.07003906 -22.984375 67.75195312 C-15.60258941 64.96913713 -8.96942497 63.70773392 -1 62 C-0.67 41.54 -0.34 21.08 0 0 Z " fill="#2D2D2D" transform="translate(297,208)"/>
<path d="M0 0 C3 1 3 1 4.859375 4.30859375 C5.50045463 5.67986574 6.13025179 7.05645615 6.75 8.4375 C7.07871094 9.13166016 7.40742188 9.82582031 7.74609375 10.54101562 C8.56712054 12.33029974 9.2911972 14.16336687 10 16 C9.67 16.66 9.34 17.32 9 18 C7.02 16.68 5.04 15.36 3 14 C2.87882812 14.71027344 2.75765625 15.42054688 2.6328125 16.15234375 C2.38144531 17.53099609 2.38144531 17.53099609 2.125 18.9375 C1.96257812 19.85402344 1.80015625 20.77054687 1.6328125 21.71484375 C1.42398437 22.46894531 1.21515625 23.22304688 1 24 C0.34 24.33 -0.32 24.66 -1 25 C-2.65 17.74 -4.3 10.48 -6 3 C-4.33333333 3 -2.66666667 3 -1 3 C-0.67 2.01 -0.34 1.02 0 0 Z " fill="#EDEDED" transform="translate(381,281)"/>
<path d="M0 0 C0.66 0 1.32 0 2 0 C2.33 0.99 2.66 1.98 3 3 C4.32 3 5.64 3 7 3 C6.54034292 10.30696249 5.11670277 16.99757448 3 24 C0.38952199 22.694761 0.31933577 21.64173426 -0.625 18.9375 C-0.88539062 18.20402344 -1.14578125 17.47054688 -1.4140625 16.71484375 C-1.60742188 16.14894531 -1.80078125 15.58304687 -2 15 C-3.98 15.99 -5.96 16.98 -8 18 C-6.65150163 13.64029169 -4.95092154 9.68658562 -2.875 5.625 C-2.33617188 4.56539063 -1.79734375 3.50578125 -1.2421875 2.4140625 C-0.83226563 1.61742187 -0.42234375 0.82078125 0 0 Z " fill="#F1F1F1" transform="translate(116,283)"/>
<path d="M0 0 C2.89659753 0.32184417 5.31897331 0.61408488 7.875 2.0625 C9.72876552 5.25509617 9.74231244 8.47931816 9 12 C6.9375 14.5625 6.9375 14.5625 4 16 C0.61498997 15.82788085 -1.96282462 15.51858769 -5 14 C-4.34580901 8.93001981 -2.1453591 4.58009223 0 0 Z " fill="#100F0F" transform="translate(286,312)"/>
<path d="M0 0 C0.19655987 4.91399678 -0.4600938 8.3802814 -2 13 C-2.45496155 16.32471903 -2.74873647 19.65422777 -3 23 C-4.98 23.33 -6.96 23.66 -9 24 C-9 16.41 -9 8.82 -9 1 C-5.68756695 0.17189174 -3.34023421 -0.09278428 0 0 Z " fill="#F6F6F6" transform="translate(291,181)"/>
<path d="M0 0 C3 1 3 1 4.60546875 3.8359375 C5.12753906 5.00382812 5.64960938 6.17171875 6.1875 7.375 C6.71730469 8.53773438 7.24710938 9.70046875 7.79296875 10.8984375 C9 14 9 14 9 17 C6.525 16.01 6.525 16.01 4 15 C2.02 19.455 2.02 19.455 0 24 C-3.24848794 17.50302411 -5.59533199 10.34242783 -5 3 C-3.68 3 -2.36 3 -1 3 C-0.67 2.01 -0.34 1.02 0 0 Z " fill="#F4F4F4" transform="translate(134,283)"/>
<path d="M0 0 C0.66 0 1.32 0 2 0 C2.33 0.99 2.66 1.98 3 3 C4.32 3 5.64 3 7 3 C6.39700836 10.23589973 4.8849413 16.99370876 3 24 C0.04816899 21.04816899 -0.08663988 18.04488053 -1 14 C-2.65 15.32 -4.3 16.64 -6 18 C-6.66 17.67 -7.32 17.34 -8 17 C-6.85700498 14.35290709 -5.71075628 11.70730948 -4.5625 9.0625 C-4.23701172 8.30775391 -3.91152344 7.55300781 -3.57617188 6.77539062 C-1.11328125 1.11328125 -1.11328125 1.11328125 0 0 Z " fill="#F5F5F5" transform="translate(363,281)"/>
<path d="M0 0 C1.98 0 3.96 0 6 0 C6 2.31 6 4.62 6 7 C8.31 5.35 10.62 3.7 13 2 C13.9375 4.625 13.9375 4.625 14 8 C11.9456142 10.38782014 9.56957396 12.19296794 7 14 C6.67 13.01 6.34 12.02 6 11 C5.896875 11.7425 5.79375 12.485 5.6875 13.25 C4.95066203 16.1973519 4.05200858 17.78383074 2 20 C1.34 20 0.68 20 0 20 C-0.95946595 15.38034912 -0.96102244 11.31870875 -0.5625 6.625 C-0.46066406 5.37976563 -0.35882813 4.13453125 -0.25390625 2.8515625 C-0.17011719 1.91054687 -0.08632812 0.96953125 0 0 Z M-3 17 C-2.34 17.66 -1.68 18.32 -1 19 C-1.66 19 -2.32 19 -3 19 C-3 18.34 -3 17.68 -3 17 Z " fill="#4C4C4C" transform="translate(247,222)"/>
<path d="M0 0 C2.375 1.625 2.375 1.625 4 4 C4.61564756 7.69388534 4.46062609 9.30906087 2.375 12.4375 C0 14 0 14 -3.0625 14.0625 C-6 13 -6 13 -7.875 10.75 C-9.07007711 7.8287004 -9.49138044 6.1120761 -9 3 C-6.73644047 -0.64684591 -4.03172437 -0.57596062 0 0 Z " fill="#0A0A0A" transform="translate(213,118)"/>
<path d="M0 0 C1.890625 0.21484375 1.890625 0.21484375 4 1 C5.046875 3.06640625 5.046875 3.06640625 5.75 5.5625 C5.99234375 6.38878906 6.2346875 7.21507812 6.484375 8.06640625 C6.65453125 8.70449219 6.8246875 9.34257812 7 10 C7.66 7.69 8.32 5.38 9 3 C10.32 3 11.64 3 13 3 C12.01 7.95 11.02 12.9 10 18 C8.68 18 7.36 18 6 18 C4.68 14.7 3.36 11.4 2 8 C1.34 10.64 0.68 13.28 0 16 C-0.99 16 -1.98 16 -3 16 C-2.57910004 10.39538469 -2.08386889 5.27913453 0 0 Z " fill="#0F0E0E" transform="translate(270,307)"/>
<path d="M0 0 C1.42944945 2.35438733 2.08661261 3.48032433 1.625 6.25 C1.41875 6.8275 1.2125 7.405 1 8 C2.32 8.66 3.64 9.32 5 10 C4.67 11.32 4.34 12.64 4 14 C1.0625 13.625 1.0625 13.625 -2 13 C-2.33 12.34 -2.66 11.68 -3 11 C-3.33 13.64 -3.66 16.28 -4 19 C-4.99 18.67 -5.98 18.34 -7 18 C-7.625 16 -7.625 16 -8 14 C-8.33 13.67 -8.66 13.34 -9 13 C-9 12.01 -9 11.02 -9 10 C-9.99 10 -10.98 10 -12 10 C-12 9.34 -12 8.68 -12 8 C-9.04518508 5.25624329 -8.22528092 5 -4 5 C-4 4.01 -4 3.02 -4 2 C-2.68 1.34 -1.36 0.68 0 0 Z " fill="#898989" transform="translate(257,194)"/>
<path d="M0 0 C0.66 0.33 1.32 0.66 2 1 C1.67 1.99 1.34 2.98 1 4 C2.65 3.34 4.3 2.68 6 2 C5.42655063 4.86724686 5.1385485 5.8614515 3 8 C2.27865942 11.79652937 2.14339398 15.52854785 4.12109375 18.92578125 C5.6195533 20.75854096 5.6195533 20.75854096 8 23 C7.34 23.33 6.68 23.66 6 24 C5.67 24.99 5.34 25.98 5 27 C6.65 26.67 8.3 26.34 10 26 C9.67 27.32 9.34 28.64 9 30 C9 29.34 9 28.68 9 28 C7.68 28.33 6.36 28.66 5 29 C4.67 27.35 4.34 25.7 4 24 C2.68 24 1.36 24 0 24 C0 22.35 0 20.7 0 19 C-0.99 19 -1.98 19 -3 19 C-2.979375 18.236875 -2.95875 17.47375 -2.9375 16.6875 C-2.87057159 13.89814214 -2.87057159 13.89814214 -4 11 C-3.34 11 -2.68 11 -2 11 C-2.33 9.02 -2.66 7.04 -3 5 C-2.01 5 -1.02 5 0 5 C0 3.35 0 1.7 0 0 Z " fill="#8C8C8C" transform="translate(114,258)"/>
<path d="M0 0 C0.33 1.65 0.66 3.3 1 5 C-6.06211347 8.81354127 -13.42528974 11.40417233 -21 14 C-21.33 12.02 -21.66 10.04 -22 8 C-18.71057634 6.66108439 -15.41810891 5.32982297 -12.125 4 C-11.18785156 3.6184375 -10.25070312 3.236875 -9.28515625 2.84375 C-8.38925781 2.4828125 -7.49335938 2.121875 -6.5703125 1.75 C-5.74289551 1.41484375 -4.91547852 1.0796875 -4.06298828 0.734375 C-2 0 -2 0 0 0 Z " fill="#F1F1F1" transform="translate(375,190)"/>
<path d="M0 0 C0.56460937 0.23074219 1.12921875 0.46148437 1.7109375 0.69921875 C1.09367554 6.37277546 0.43147798 12.0378293 -0.2890625 17.69921875 C-1.6090625 17.03921875 -2.9290625 16.37921875 -4.2890625 15.69921875 C-4.2890625 14.37921875 -4.2890625 13.05921875 -4.2890625 11.69921875 C-7.4424305 10.99847031 -10.01631224 10.69921875 -13.2890625 10.69921875 C-11.8219452 7.14185368 -9.9184206 5.25726708 -6.9140625 2.88671875 C-6.14320313 2.26152344 -5.37234375 1.63632812 -4.578125 0.9921875 C-2.2890625 -0.30078125 -2.2890625 -0.30078125 0 0 Z " fill="#1B1B1B" transform="translate(311.2890625,322.30078125)"/>
<path d="M0 0 C0.99 0 1.98 0 3 0 C2.95359375 0.56847656 2.9071875 1.13695312 2.859375 1.72265625 C2.57698858 7.76370852 3.400092 11.10012522 7 16 C9.93300239 18.40925196 13.22833283 18.4210821 16.96875 18.31640625 C20.39601982 17.78254307 22.43838621 16.25665977 25 14 C27.70666377 9.69394401 27.19285701 4.91785365 27 0 C27.99 0 28.98 0 30 0 C29.67 1.65 29.34 3.3 29 5 C29.66 5 30.32 5 31 5 C30.67 7.64 30.34 10.28 30 13 C29.01 13 28.02 13 27 13 C27 14.65 27 16.3 27 18 C25.35 18 23.7 18 22 18 C22 18.99 22 19.98 22 21 C17.33333333 21 12.66666667 21 8 21 C8 20.01 8 19.02 8 18 C6.35 18 4.7 18 3 18 C3 16.35 3 14.7 3 13 C2.01 13 1.02 13 0 13 C0.020625 12.236875 0.04125 11.47375 0.0625 10.6875 C0.12942841 7.89814214 0.12942841 7.89814214 -1 5 C-0.34 5 0.32 5 1 5 C0.67 3.35 0.34 1.7 0 0 Z " fill="#EBEBEB" transform="translate(358,262)"/>
<path d="M0 0 C5.71658336 -0.45732667 8.48649253 0.47726246 13 4 C13 2.68 13 1.36 13 0 C13.66 0 14.32 0 15 0 C15 1.65 15 3.3 15 5 C15.99 5.33 16.98 5.66 18 6 C17.01 6 16.02 6 15 6 C15.10699219 6.58007812 15.21398437 7.16015625 15.32421875 7.7578125 C16.14172598 13.0847951 16.29353161 16.43155293 13 21 C9.11630135 24.43210578 6.04296116 25.64044436 0.96875 25.40625 C-2.33012047 24.7255307 -4.39031507 23.08774795 -7 21 C-6.67 20.34 -6.34 19.68 -6 19 C-5.34 19.66 -4.68 20.32 -4 21 C-1.20398538 21.28195986 -1.20398538 21.28195986 1.9375 21.1875 C2.99839844 21.18105469 4.05929687 21.17460937 5.15234375 21.16796875 C8.07509523 21.11931169 8.07509523 21.11931169 11 20 C12.58355557 16.40101007 12.45145169 11.85713991 12 8 C10.25746655 4.76386646 9.52814056 4.17604685 6 3 C6 2.34 6 1.68 6 1 C4.02 1 2.04 1 0 1 C0 0.67 0 0.34 0 0 Z " fill="#767676" transform="translate(370,256)"/>
<path d="M0 0 C3.23861303 1.44424635 5.61969163 3.25772247 8.25 5.625 C8.95640625 6.25664062 9.6628125 6.88828125 10.390625 7.5390625 C10.92171875 8.02117187 11.4528125 8.50328125 12 9 C11.67 10.32 11.34 11.64 11 13 C10.05125 12.835 9.1025 12.67 8.125 12.5 C5.19831099 11.9473365 5.19831099 11.9473365 3 12 C2.67 13.65 2.34 15.3 2 17 C1.01 17 0.02 17 -1 17 C-1.02684679 14.35409986 -1.04676357 11.70846904 -1.0625 9.0625 C-1.07087891 8.30775391 -1.07925781 7.55300781 -1.08789062 6.77539062 C-1.09652441 4.85005687 -1.05224333 2.92464419 -1 1 C-0.67 0.67 -0.34 0.34 0 0 Z " fill="#151515" transform="translate(201,316)"/>
<path d="M0 0 C0.99 0 1.98 0 3 0 C3.50435694 1.9363704 4.00333874 3.87414146 4.5 5.8125 C4.7784375 6.89144531 5.056875 7.97039062 5.34375 9.08203125 C6 12 6 12 6 15 C4.68 15 3.36 15 2 15 C2 13.02 2 11.04 2 9 C0.35 9.33 -1.3 9.66 -3 10 C-3 11.98 -3 13.96 -3 16 C-3.99 16 -4.98 16 -6 16 C-7.26305335 10.92523206 -8.27036084 6.27203646 -8 1 C-6.68 1.33 -5.36 1.66 -4 2 C-4 3.65 -4 5.3 -4 7 C-2.35 6.67 -0.7 6.34 1 6 C0.67 4.02 0.34 2.04 0 0 Z " fill="#0E0E0E" transform="translate(233,307)"/>
<path d="M0 0 C1.8125 0.8125 1.8125 0.8125 3.8125 2.8125 C3.9375 5.4375 3.9375 5.4375 3.8125 7.8125 C1.8325 8.8025 1.8325 8.8025 -0.1875 9.8125 C0.4725 11.7925 1.1325 13.7725 1.8125 15.8125 C0.8225 16.1425 -0.1675 16.4725 -1.1875 16.8125 C-2.3874038 15.05004778 -3.57209517 13.27723019 -4.75 11.5 C-5.41128906 10.51386719 -6.07257813 9.52773438 -6.75390625 8.51171875 C-7.46353516 7.17560547 -7.46353516 7.17560547 -8.1875 5.8125 C-7.1875 2.8125 -7.1875 2.8125 -4.875 1.0625 C-2.1875 -0.1875 -2.1875 -0.1875 0 0 Z " fill="#1F1E1E" transform="translate(192.1875,322.1875)"/>
<path d="M0 0 C0 9.9 0 19.8 0 30 C-1.32 30 -2.64 30 -4 30 C-4.08690253 25.56262288 -4.14035926 21.12546366 -4.1875 16.6875 C-4.21263672 15.42486328 -4.23777344 14.16222656 -4.26367188 12.86132812 C-4.27333984 11.65283203 -4.28300781 10.44433594 -4.29296875 9.19921875 C-4.31653442 7.52605591 -4.31653442 7.52605591 -4.34057617 5.8190918 C-4 3 -4 3 -2.54418945 1.11254883 C-1 0 -1 0 0 0 Z " fill="#FDFDFD" transform="translate(252,255)"/>
<path d="M0 0 C0.33 0.66 0.66 1.32 1 2 C4.96 2 8.92 2 13 2 C13.33 1.34 13.66 0.68 14 0 C15.65 0.66 17.3 1.32 19 2 C19.33 5.63 19.66 9.26 20 13 C11.42 13 2.84 13 -6 13 C-5.67 9.37 -5.34 5.74 -5 2 C-3.35 1.34 -1.7 0.68 0 0 Z M-3 3 C-3 5.97 -3 8.94 -3 12 C3.6 12 10.2 12 17 12 C17 9.03 17 6.06 17 3 C10.4 3 3.8 3 -3 3 Z " fill="#BCBCBC" transform="translate(243,383)"/>
<path d="M0 0 C4.09553782 -0.32764303 6.53860663 -0.23069669 10.25 1.625 C13.37948288 4.32773522 14.71485486 6.0689678 16 10 C16.19935159 14.22791503 15.45635649 17.22250375 13.3125 20.875 C10.57784693 23.38792445 8.63054382 24.25907269 5 25 C2.125 24.625 2.125 24.625 0 24 C0 23.67 0 23.34 0 23 C0.69867188 22.81824219 1.39734375 22.63648438 2.1171875 22.44921875 C3.02726562 22.19785156 3.93734375 21.94648438 4.875 21.6875 C6.23238281 21.32205078 6.23238281 21.32205078 7.6171875 20.94921875 C10.32113319 20.13330148 10.32113319 20.13330148 12 17 C12.6651749 12.80011662 12.71048328 9.1841388 10.5 5.5 C6.9787637 3.38725822 4.08577216 3.27238481 0 3 C0 2.01 0 1.02 0 0 Z " fill="#6A6A6A" transform="translate(123,258)"/>
<path d="M0 0 C3.34998521 1.11666174 3.79340222 1.74694925 5.6875 4.5625 C6.34298828 5.52349609 6.34298828 5.52349609 7.01171875 6.50390625 C7.33785156 6.99761719 7.66398438 7.49132812 8 8 C5.94433505 12.97687303 2.30420611 14.94540211 -2 18 C-1.34 12.06 -0.68 6.12 0 0 Z " fill="#B8B4B4" transform="translate(164,312)"/>
<path d="M0 0 C3 1 3 1 4 3 C6.01669827 4.13350534 6.01669827 4.13350534 8 5 C7.34 5.66 6.68 6.32 6 7 C5.35232207 9.57061311 5.35232207 9.57061311 5 12 C2.36 12 -0.28 12 -3 12 C-3.309375 11.05125 -3.61875 10.1025 -3.9375 9.125 C-4.87394742 6.13919592 -4.87394742 6.13919592 -6 4 C-4.7934375 3.566875 -4.7934375 3.566875 -3.5625 3.125 C-0.8673532 2.26737432 -0.8673532 2.26737432 0 0 Z " fill="#F5F5F5" transform="translate(372,262)"/>
<path d="M0 0 C0.66 0 1.32 0 2 0 C2.33 1.32 2.66 2.64 3 4 C4.65 4 6.3 4 8 4 C7.01 5.485 7.01 5.485 6 7 C5.61500109 8.65549531 5.27206865 10.3222433 5 12 C2.36 12 -0.28 12 -3 12 C-3.309375 11.05125 -3.61875 10.1025 -3.9375 9.125 C-4.87394742 6.13919592 -4.87394742 6.13919592 -6 4 C-4.35 4 -2.7 4 -1 4 C-0.67 2.68 -0.34 1.36 0 0 Z " fill="#FAFAFA" transform="translate(125,264)"/>
<path d="M0 0 C0.66 0 1.32 0 2 0 C2 0.66 2 1.32 2 2 C3.98 1.67 5.96 1.34 8 1 C8.33 1.99 8.66 2.98 9 4 C9.99 4.33 10.98 4.66 12 5 C11.67 6.32 11.34 7.64 11 9 C9.7934375 7.9171875 9.7934375 7.9171875 8.5625 6.8125 C5.30708589 4.69863994 5.30708589 4.69863994 2.703125 5.4375 C1.13437015 6.01168478 -0.41844461 6.63189376 -1.94921875 7.30078125 C-4 8 -4 8 -7 7 C-7.99 7.33 -8.98 7.66 -10 8 C-10 7.01 -10 6.02 -10 5 C-9.01 4.67 -8.02 4.34 -7 4 C-6.67 3.01 -6.34 2.02 -6 1 C-3.03 1.495 -3.03 1.495 0 2 C0 1.34 0 0.68 0 0 Z " fill="#E2E2E2" transform="translate(125,254)"/>
<path d="M0 0 C0.33 0 0.66 0 1 0 C1.5304408 2.26860837 2.04905434 4.53998489 2.5625 6.8125 C2.85253906 8.07707031 3.14257812 9.34164063 3.44140625 10.64453125 C4 14 4 14 3 17 C-0.3 14.36 -3.6 11.72 -7 9 C-1.125 1.125 -1.125 1.125 0 0 Z " fill="#B5B1B1" transform="translate(335,312)"/>
<path d="M0 0 C4.62 0 9.24 0 14 0 C14 1.65 14 3.3 14 5 C9.38 5 4.76 5 0 5 C0 3.35 0 1.7 0 0 Z " fill="#EFEFEF" transform="translate(243,388)"/>
<path d="M0 0 C-2.61657732 2.61657732 -4.79923198 2.8850105 -8.375 3.8125 C-16.4771338 6.04183456 -24.14366026 8.98147578 -31.625 12.8125 C-34 14 -34 14 -36 14 C-36 13.34 -36 12.68 -36 12 C-32.8799082 10.55167791 -29.75309784 9.11843837 -26.625 7.6875 C-25.31982422 7.08131836 -25.31982422 7.08131836 -23.98828125 6.46289062 C-8.35375068 -0.65950663 -8.35375068 -0.65950663 0 0 Z " fill="#363636" transform="translate(293,262)"/>
<path d="M0 0 C0.66 0 1.32 0 2 0 C2 0.66 2 1.32 2 2 C3.98 1.67 5.96 1.34 8 1 C8.33 1.99 8.66 2.98 9 4 C9.99 4.33 10.98 4.66 12 5 C11.67 6.32 11.34 7.64 11 9 C10.195625 8.34 9.39125 7.68 8.5625 7 C4.55080722 4.34450596 0.67224727 4.13384364 -4 5 C-6.34576488 6.11291913 -7.97143135 7.33553342 -10 9 C-10 7.68 -10 6.36 -10 5 C-9.01 4.67 -8.02 4.34 -7 4 C-6.525625 3.46375 -6.05125 2.9275 -5.5625 2.375 C-4.7890625 1.694375 -4.7890625 1.694375 -4 1 C-1.8125 1.3125 -1.8125 1.3125 0 2 C0 1.34 0 0.68 0 0 Z " fill="#E3E3E3" transform="translate(372,252)"/>
<path d="M0 0 C0.33 0.66 0.66 1.32 1 2 C1.99 2 2.98 2 4 2 C4.33 2.66 4.66 3.32 5 4 C5.99 4.33 6.98 4.66 8 5 C7.01 5.495 7.01 5.495 6 6 C6.34786708 7.97536745 6.34786708 7.97536745 7 10 C7.66 10.33 8.32 10.66 9 11 C9 8.03 9 5.06 9 2 C9.66 1.67 10.32 1.34 11 1 C11 2.32 11 3.64 11 5 C12.65 5 14.3 5 16 5 C15.67 5.66 15.34 6.32 15 7 C13.68 6.67 12.36 6.34 11 6 C10.67 7.98 10.34 9.96 10 12 C7.6875 11.9375 7.6875 11.9375 5 11 C3.93097061 8.69747517 2.92824183 6.3627974 2 4 C1.01 3.67 0.02 3.34 -1 3 C-1 3.66 -1 4.32 -1 5 C-1.66 5 -2.32 5 -3 5 C-3.33 5.99 -3.66 6.98 -4 8 C-4.25 5.6875 -4.25 5.6875 -4 3 C-2 1.1875 -2 1.1875 0 0 Z " fill="#AEAEAE" transform="translate(244,202)"/>
<path d="M0 0 C0 0.66 0 1.32 0 2 C-1.07636719 2.30292969 -2.15273438 2.60585937 -3.26171875 2.91796875 C-12.3789664 5.52065231 -21.21501177 8.40961351 -30 12 C-30.33 11.34 -30.66 10.68 -31 10 C-27.83688775 8.69950899 -24.66892214 7.41126194 -21.5 6.125 C-20.613125 5.76019531 -19.72625 5.39539063 -18.8125 5.01953125 C-6.40056818 0 -6.40056818 0 0 0 Z " fill="#3D3D3D" transform="translate(293,234)"/>
<path d="M0 0 C4.70588235 0.70588235 4.70588235 0.70588235 6 2 C6.125 5 6.125 5 6 8 C5 9 5 9 2.5 9.125 C0 9 0 9 -1 8 C-1.125 4.5 -1.125 4.5 -1 1 C-0.67 0.67 -0.34 0.34 0 0 Z " fill="#BAB6B6" transform="translate(245,309)"/>
<path d="M0 0 C0.99 0.33 1.98 0.66 3 1 C1.50829734 5.9723422 -0.60457417 10.41845739 -3 15 C-4.32 14.34 -5.64 13.68 -7 13 C-3.535 6.565 -3.535 6.565 0 0 Z " fill="#101010" transform="translate(300,317)"/>
<path d="M0 0 C1.65 0 3.3 0 5 0 C5.13595863 1.41396973 5.23243845 2.83176684 5.3125 4.25 C5.37050781 5.03890625 5.42851562 5.8278125 5.48828125 6.640625 C5 9 5 9 0 13 C0 8.71 0 4.42 0 0 Z " fill="#E8E8E8" transform="translate(248,222)"/>
<path d="M0 0 C6.08258254 0.55296205 11.25896271 1.98262401 17 4 C18.80815504 4.59666522 20.62072118 5.18013269 22.4375 5.75 C23.26121094 6.01296875 24.08492187 6.2759375 24.93359375 6.546875 C27.04866798 7.23750517 27.04866798 7.23750517 29 6 C27.25 9.875 27.25 9.875 25 11 C25 10.34 25 9.68 25 9 C23.62542692 8.58192708 22.25029719 8.16568468 20.875 7.75 C19.52728516 7.34201172 19.52728516 7.34201172 18.15234375 6.92578125 C15.85999684 6.25256413 13.55921191 5.60787728 11.25390625 4.98046875 C9.99449219 4.63628906 8.73507813 4.29210937 7.4375 3.9375 C6.23996094 3.61652344 5.04242188 3.29554688 3.80859375 2.96484375 C1 2 1 2 0 0 Z " fill="#333333" transform="translate(207,248)"/>
<path d="M0 0 C1.32 0 2.64 0 4 0 C3.47462276 5.0302076 2.89405214 10.01885239 2 15 C1.01 15 0.02 15 -1 15 C-1.09038099 9.84828377 -0.84681133 5.08086796 0 0 Z " fill="#0C0C0C" transform="translate(263,307)"/>
<path d="M0 0 C0.99 0.495 0.99 0.495 2 1 C2 3.31 2 5.62 2 8 C2.99 8.33 3.98 8.66 5 9 C6.38576923 10.62332967 7.72641268 12.28724465 9 14 C8.01 14.495 8.01 14.495 7 15 C6.67 15.99 6.34 16.98 6 18 C7.65 17.67 9.3 17.34 11 17 C10.67 18.32 10.34 19.64 10 21 C10 20.34 10 19.68 10 19 C8.68 19.33 7.36 19.66 6 20 C5.87625 19.195625 5.7525 18.39125 5.625 17.5625 C5.41875 16.716875 5.2125 15.87125 5 15 C4.34 14.67 3.68 14.34 3 14 C3 13.34 3 12.68 3 12 C2.2575 10.9171875 2.2575 10.9171875 1.5 9.8125 C-0.34691514 6.34953411 -0.22757022 3.86869382 0 0 Z " fill="#747474" transform="translate(113,267)"/>
<path d="M0 0 C2.375 -0.1875 2.375 -0.1875 5 0 C5.66 0.99 6.32 1.98 7 3 C5.515 5.475 5.515 5.475 4 8 C2.35 7.67 0.7 7.34 -1 7 C-0.67 4.69 -0.34 2.38 0 0 Z " fill="#161616" transform="translate(246,190)"/>
<path d="M0 0 C-4.04225713 1.34741904 -7.07680585 0.16718043 -11.0625 -0.875 C-17.39548313 -2.4584138 -23.46576179 -3.58512773 -30 -4 C-30 -4.33 -30 -4.66 -30 -5 C-19.31948346 -7.46473459 -9.91007261 -3.53837902 0 0 Z " fill="#D5D5D5" transform="translate(230,279)"/>
<path d="M0 0 C0.7734375 0.495 0.7734375 0.495 1.5625 1 C0.00402344 1.16435547 0.00402344 1.16435547 -1.5859375 1.33203125 C-8.8182506 2.14005759 -15.63479896 3.0114115 -22.51953125 5.51171875 C-24.4375 6 -24.4375 6 -27.4375 5 C-24.58746588 3.98665453 -21.73341336 2.98919371 -18.875 2 C-18.07513672 1.71382813 -17.27527344 1.42765625 -16.45117188 1.1328125 C-10.88789426 -0.77459697 -5.7049827 -2.34050572 0 0 Z " fill="#DADADA" transform="translate(297.4375,274)"/>
<path d="M0 0 C2.53125 0.27734375 2.53125 0.27734375 5.5 0.9375 C9.36277818 2.00441981 9.36277818 2.00441981 13 1 C15.625 1.9375 15.625 1.9375 18 3 C16.02 3.99 16.02 3.99 14 5 C14.99 5.66 15.98 6.32 17 7 C15.35333797 6.8864371 13.70763918 6.75882619 12.0625 6.625 C10.68771484 6.52058594 10.68771484 6.52058594 9.28515625 6.4140625 C8.15400391 6.20910156 8.15400391 6.20910156 7 6 C6.67 5.34 6.34 4.68 6 4 C4.11235097 3.31527335 4.11235097 3.31527335 1.9375 2.875 C1.20402344 2.70742188 0.47054687 2.53984375 -0.28515625 2.3671875 C-0.85105469 2.24601562 -1.41695312 2.12484375 -2 2 C-1.34 1.34 -0.68 0.68 0 0 Z " fill="#4F4F4F" transform="translate(219,277)"/>
<path d="M0 0 C0.33 1.32 0.66 2.64 1 4 C-0.32 4 -1.64 4 -3 4 C-3 4.99 -3 5.98 -3 7 C-7.66666667 7 -12.33333333 7 -17 7 C-17 6.01 -17 5.02 -17 4 C-15.91332031 4.06960938 -15.91332031 4.06960938 -14.8046875 4.140625 C-8.46110041 4.37745225 -4.85794935 4.20146971 0 0 Z " fill="#F5F5F5" transform="translate(136,278)"/>
<path d="M0 0 C0.99 0.33 1.98 0.66 3 1 C3.14285714 9.57142857 3.14285714 9.57142857 2 13 C1.01 12.67 0.02 12.34 -1 12 C-1.625 10 -1.625 10 -2 8 C-2.33 7.67 -2.66 7.34 -3 7 C-2.5625 4.9375 -2.5625 4.9375 -2 3 C-1.01 3.33 -0.02 3.66 1 4 C0.67 2.68 0.34 1.36 0 0 Z " fill="#131313" transform="translate(251,200)"/>
<path d="M0 0 C0.99 0 1.98 0 3 0 C2.95359375 0.64066406 2.9071875 1.28132813 2.859375 1.94140625 C2.59439436 8.2914781 3.36552777 11.77544617 7 17 C5.68 17.33 4.36 17.66 3 18 C3 16.35 3 14.7 3 13 C2.01 13 1.02 13 0 13 C0.020625 12.236875 0.04125 11.47375 0.0625 10.6875 C0.12942841 7.89814214 0.12942841 7.89814214 -1 5 C-0.34 5 0.32 5 1 5 C0.67 3.35 0.34 1.7 0 0 Z " fill="#E4E4E4" transform="translate(111,264)"/>
<path d="M0 0 C5.26913072 0.47901188 9.82931705 1.4694977 14.8125 3.234375 C17.84071037 4.29424863 20.90846909 5.1448957 24 6 C23.01 6.66 22.02 7.32 21 8 C18.26251099 7.37327465 15.76637272 6.65901296 13.125 5.75 C12.41730469 5.51925781 11.70960938 5.28851563 10.98046875 5.05078125 C7.26543626 3.82627334 3.61353 2.50209482 0 1 C0 0.67 0 0.34 0 0 Z " fill="#373737" transform="translate(207,255)"/>
<path d="M0 0 C1.32 0.66 2.64 1.32 4 2 C3.125 6.875 3.125 6.875 2 8 C0.33382885 8.04063832 -1.33388095 8.042721 -3 8 C-2.01 5.36 -1.02 2.72 0 0 Z " fill="#B1AEAE" transform="translate(288,316)"/>
<path d="M0 0 C0.99 0 1.98 0 3 0 C2.97679687 0.59167969 2.95359375 1.18335938 2.9296875 1.79296875 C2.78963788 6.91567583 2.78963788 6.91567583 4.125 11.8125 C5 14 5 14 4.125 16.3125 C3.75375 16.869375 3.3825 17.42625 3 18 C3 16.35 3 14.7 3 13 C2.01 13 1.02 13 0 13 C0.020625 12.236875 0.04125 11.47375 0.0625 10.6875 C0.12942841 7.89814214 0.12942841 7.89814214 -1 5 C-0.34 5 0.32 5 1 5 C0.67 3.35 0.34 1.7 0 0 Z " fill="#DFDFDF" transform="translate(358,262)"/>
<path d="M0 0 C1.65 0.33 3.3 0.66 5 1 C3.68 1.33 2.36 1.66 1 2 C4.00419641 3.0013988 6.87709365 3.51421457 10 4 C10 4.33 10 4.66 10 5 C8.37548581 5.33569297 6.75037083 5.6684796 5.125 6 C3.76761719 6.2784375 3.76761719 6.2784375 2.3828125 6.5625 C0.17114575 6.96857652 -1.76240071 7 -4 7 C-4 6.01 -4 5.02 -4 4 C-3.01 3.67 -2.02 3.34 -1 3 C-0.67 2.01 -0.34 1.02 0 0 Z " fill="#C8C8C8" transform="translate(119,255)"/>
<path d="M0 0 C-2.51231378 2.51231378 -4.37851766 2.78661713 -7.8125 3.625 C-9.36904297 4.01558594 -9.36904297 4.01558594 -10.95703125 4.4140625 C-13.73587837 4.94914218 -16.18176362 5.11460481 -19 5 C-13.41631348 1.27754232 -6.71593812 -0.53020564 0 0 Z " fill="#393939" transform="translate(293,228)"/>
<path d="M0 0 C2.475 0.495 2.475 0.495 5 1 C5 2.98 5 4.96 5 7 C4.01 7.33 3.02 7.66 2 8 C0.74335022 5.09399739 0 3.20395416 0 0 Z " fill="#BDB9B9" transform="translate(215,315)"/>
<path d="M0 0 C1.58409994 0.11487748 3.16728963 0.24234508 4.75 0.375 C6.07257813 0.47941406 6.07257813 0.47941406 7.421875 0.5859375 C9.99066382 0.99850055 11.75841015 1.71160957 14 3 C9.47907032 4.45606519 6.48351204 3.27032841 2 2 C1.67 2.99 1.34 3.98 1 5 C0.67 3.35 0.34 1.7 0 0 Z " fill="#363636" transform="translate(202,202)"/>
<path d="M0 0 C0.33 1.65 0.66 3.3 1 5 C0.01 5.66 -0.98 6.32 -2 7 C-2 6.01 -2 5.02 -2 4 C-2.33 3.01 -2.66 2.02 -3 1 C-4.32 1.33 -5.64 1.66 -7 2 C-7 2.99 -7 3.98 -7 5 C-7.66 5 -8.32 5 -9 5 C-8.75 3.125 -8.75 3.125 -8 1 C-5.08518252 -1.1107299 -3.34823603 -1.19579858 0 0 Z " fill="#6D6D6D" transform="translate(260,194)"/>
<path d="M0 0 C0.598125 0.20625 1.19625 0.4125 1.8125 0.625 C1.4825 1.945 1.1525 3.265 0.8125 4.625 C-0.5075 4.955 -1.8275 5.285 -3.1875 5.625 C-3.8475 4.305 -4.5075 2.985 -5.1875 1.625 C-2.1875 -0.375 -2.1875 -0.375 0 0 Z " fill="#1E1E1E" transform="translate(361.1875,174.375)"/>
<path d="M0 0 C0.99 0.33 1.98 0.66 3 1 C3 2.65 3 4.3 3 6 C1.68 6.33 0.36 6.66 -1 7 C-1.66 5.68 -2.32 4.36 -3 3 C-2.01 2.01 -1.02 1.02 0 0 Z " fill="#1A1A1A" transform="translate(344,152)"/>
<path d="M0 0 C1.485 0.99 1.485 0.99 3 2 C5.96842658 2.45915507 5.96842658 2.45915507 9.1875 2.625 C10.27417969 2.69976562 11.36085938 2.77453125 12.48046875 2.8515625 C13.72763672 2.92503906 13.72763672 2.92503906 15 3 C12.12295319 5.87704681 10.01579688 5.8661401 6 6 C2.5625 4.1875 2.5625 4.1875 0 2 C0 1.34 0 0.68 0 0 Z " fill="#777777" transform="translate(363,275)"/>
<path d="M0 0 C1.32 0.33 2.64 0.66 4 1 C4 2.32 4 3.64 4 5 C2.02 5.33 0.04 5.66 -2 6 C-2 4.68 -2 3.36 -2 2 C-1.34 2 -0.68 2 0 2 C0 1.34 0 0.68 0 0 Z " fill="#343434" transform="translate(243,205)"/>
<path d="M0 0 C1.98 0 3.96 0 6 0 C5.67 1.65 5.34 3.3 5 5 C3.35 4.67 1.7 4.34 0 4 C0 2.68 0 1.36 0 0 Z " fill="#070707" transform="translate(374,232)"/>
<path d="M0 0 C1 2 1 2 0.4375 4 C-1.63623215 6.88519256 -3.57946885 7.26223838 -7 8 C-9.875 7.625 -9.875 7.625 -12 7 C-12 6.67 -12 6.34 -12 6 C-11.30132812 5.81824219 -10.60265625 5.63648438 -9.8828125 5.44921875 C-8.97273438 5.19785156 -8.06265625 4.94648438 -7.125 4.6875 C-6.22007812 4.44386719 -5.31515625 4.20023437 -4.3828125 3.94921875 C-1.67886681 3.13330148 -1.67886681 3.13330148 0 0 Z " fill="#999999" transform="translate(135,275)"/>
<path d="M0 0 C1.32 0.33 2.64 0.66 4 1 C4.33 2.32 4.66 3.64 5 5 C3.35 5.33 1.7 5.66 0 6 C0 4.02 0 2.04 0 0 Z " fill="#0F0F0F" transform="translate(261,111)"/>
<path d="M0 0 C-1.49097658 3.7952131 -3.75700849 5.61042731 -7 8 C-6.62952882 5.25851328 -6.31412056 3.41406801 -4.625 1.1875 C-3 0 -3 0 0 0 Z " fill="#CCCCCC" transform="translate(261,228)"/>
<path d="M0 0 C2.97 0 5.94 0 9 0 C9.33 1.32 9.66 2.64 10 4 C8.68 4 7.36 4 6 4 C6 3.34 6 2.68 6 2 C3.03 1.505 3.03 1.505 0 1 C0 0.67 0 0.34 0 0 Z " fill="#131313" transform="translate(230,281)"/>
<path d="M0 0 C3.3 0.99 6.6 1.98 10 3 C9.67 3.99 9.34 4.98 9 6 C5.37 4.68 1.74 3.36 -2 2 C-1.34 1.34 -0.68 0.68 0 0 Z " fill="#DDDDDD" transform="translate(223,216)"/>
<path d="M0 0 C2.31 0 4.62 0 7 0 C6.67 1.65 6.34 3.3 6 5 C4 4 2 3 0 2 C0 1.34 0 0.68 0 0 Z " fill="#383838" transform="translate(129,201)"/>
<path d="M0 0 C-0.7425 0.680625 -0.7425 0.680625 -1.5 1.375 C-3.22609337 2.87635519 -3.22609337 2.87635519 -3 5 C-4.65 5 -6.3 5 -8 5 C-7.34 4.34 -6.68 3.68 -6 3 C-6.66 2.34 -7.32 1.68 -8 1 C-3.375 -1.125 -3.375 -1.125 0 0 Z " fill="#404040" transform="translate(271,279)"/>
<path d="M0 0 C0.33 1.65 0.66 3.3 1 5 C-1.31 5 -3.62 5 -6 5 C-6 4.34 -6 3.68 -6 3 C-2.53846154 0 -2.53846154 0 0 0 Z " fill="#454545" transform="translate(251,199)"/>
<path d="M0 0 C2.97 0.495 2.97 0.495 6 1 C5.67 2.32 5.34 3.64 5 5 C4.01 5 3.02 5 2 5 C2 4.34 2 3.68 2 3 C1.34 3 0.68 3 0 3 C0 2.01 0 1.02 0 0 Z " fill="#111111" transform="translate(240,197)"/>
<path d="M0 0 C0.66 1.32 1.32 2.64 2 4 C1.01 4.99 0.02 5.98 -1 7 C-1.66 6.67 -2.32 6.34 -3 6 C-3.625 3.9375 -3.625 3.9375 -4 2 C-2.68 1.34 -1.36 0.68 0 0 Z " fill="#070707" transform="translate(257,194)"/>
<path d="M0 0 C0.99 0.33 1.98 0.66 3 1 C2.6875 3.875 2.6875 3.875 2 7 C1.01 7.66 0.02 8.32 -1 9 C-0.67 6.03 -0.34 3.06 0 0 Z " fill="#1B1B1B" transform="translate(262,357)"/>
<path d="M0 0 C0.66 0 1.32 0 2 0 C2.33 2.97 2.66 5.94 3 9 C0.9375 7.3125 0.9375 7.3125 -1 5 C-0.75 2.25 -0.75 2.25 0 0 Z " fill="#151515" transform="translate(236,357)"/>
<path d="M0 0 C1.04449911 3.13349732 0.93423645 3.98968256 0 7 C-2.475 6.01 -2.475 6.01 -5 5 C-5 4.34 -5 3.68 -5 3 C-2.5 1.375 -2.5 1.375 0 0 Z " fill="#2D2D2D" transform="translate(324,138)"/>
<path d="M0 0 C5.71658336 -0.45732667 8.48649253 0.47726246 13 4 C10 5 10 5 7.8125 4.0625 C7.214375 3.711875 6.61625 3.36125 6 3 C6 2.34 6 1.68 6 1 C4.02 1 2.04 1 0 1 C0 0.67 0 0.34 0 0 Z " fill="#545454" transform="translate(370,256)"/>
<path d="M0 0 C1.65 0.99 3.3 1.98 5 3 C4.67 3.66 4.34 4.32 4 5 C2.35 5 0.7 5 -1 5 C-0.67 3.35 -0.34 1.7 0 0 Z " fill="#0D0D0D" transform="translate(256,202)"/>
<path d="M0 0 C0.33 1.32 0.66 2.64 1 4 C-0.32 4 -1.64 4 -3 4 C-3 4.99 -3 5.98 -3 7 C-3.99 7 -4.98 7 -6 7 C-6 6.01 -6 5.02 -6 4 C-3 1.8125 -3 1.8125 0 0 Z " fill="#EDEDED" transform="translate(136,278)"/>
<path d="M0 0 C3.465 1.98 3.465 1.98 7 4 C7 4.99 7 5.98 7 7 C6.01 7 5.02 7 4 7 C4 6.01 4 5.02 4 4 C2.68 4 1.36 4 0 4 C0 2.68 0 1.36 0 0 Z " fill="#ECECEC" transform="translate(362,276)"/>
<path d="M0 0 C0.99 0 1.98 0 3 0 C2.67 3.3 2.34 6.6 2 10 C1.01 9.01 0.02 8.02 -1 7 C-1 6.34 -1 5.68 -1 5 C-0.34 5 0.32 5 1 5 C0.67 3.35 0.34 1.7 0 0 Z " fill="#EBEBEB" transform="translate(111,264)"/>
<path d="M0 0 C2.375 -0.1875 2.375 -0.1875 5 0 C5.66 0.99 6.32 1.98 7 3 C6.34 3.66 5.68 4.32 5 5 C3.68 3.68 2.36 2.36 1 1 C1 2.32 1 3.64 1 5 C0.34 5 -0.32 5 -1 5 C-0.67 3.35 -0.34 1.7 0 0 Z " fill="#979797" transform="translate(246,190)"/>
<path d="M0 0 C0.66 0 1.32 0 2 0 C2.185625 1.2065625 2.185625 1.2065625 2.375 2.4375 C2.58125 3.283125 2.7875 4.12875 3 5 C3.66 5.33 4.32 5.66 5 6 C4.67 7.32 4.34 8.64 4 10 C3.34 10 2.68 10 2 10 C1.34 6.7 0.68 3.4 0 0 Z " fill="#C6C6C6" transform="translate(136,258)"/>
<path d="M0 0 C-0.33 0.66 -0.66 1.32 -1 2 C-3.64 2 -6.28 2 -9 2 C-5.96271914 -1.03728086 -4.06215635 -1.35405212 0 0 Z " fill="#EEEEEE" transform="translate(285,279)"/>
<path d="M0 0 C0.66 0.33 1.32 0.66 2 1 C1.375 2.875 1.375 2.875 0 5 C-3.125 6.25 -3.125 6.25 -6 7 C-4.02 4.69 -2.04 2.38 0 0 Z " fill="#CCCCCC" transform="translate(269,237)"/>
</svg>
